<svg xmlns="http://www.w3.org/2000/svg" width="233.99mm" height="249.68mm" viewBox="0 0 663.28 707.76">
  <defs>
    <style>
      .a {
        fill: none;
        stroke: #000;
        stroke-miterlimit: 10;
        stroke-width: 14.17px;
      }
    </style>
  </defs>
  <path d="M356.38,176.22h79.18A93.46,93.46,0,0,1,475,184.68a107.5,107.5,0,0,1,32.22,22.53A104.63,104.63,0,0,1,528.94,240a101,101,0,0,1,.14,78.09A104.38,104.38,0,0,1,507.51,351a106.33,106.33,0,0,1-32.22,22.67,94.09,94.09,0,0,1-39.73,8.46H356.38ZM409.9,336.76h12.28A66.5,66.5,0,0,0,447,332.4a53,53,0,0,0,18.43-12,51.33,51.33,0,0,0,11.47-18.16,64.89,64.89,0,0,0,4-23.07,63.33,63.33,0,0,0-4.1-22.93,51.37,51.37,0,0,0-30-30.31,65.8,65.8,0,0,0-24.58-4.37H409.9Z" transform="translate(-250.48 -51.18)"/>
  <path d="M560.69,204.06a26.81,26.81,0,0,1,2.19-10.78,28.29,28.29,0,0,1,14.88-14.88,27.77,27.77,0,0,1,21.57,0,28.38,28.38,0,0,1,14.88,14.88,27.77,27.77,0,0,1,0,21.57,28.38,28.38,0,0,1-14.88,14.88,27.77,27.77,0,0,1-21.57,0,28.29,28.29,0,0,1-14.88-14.88A26.83,26.83,0,0,1,560.69,204.06Zm52.7,38V382.09H564V242Z" transform="translate(-250.48 -51.18)"/>
  <path d="M753.74,242h49.69V382.09H753.74V366.52q-15.84,19.94-42.87,19.94a69.62,69.62,0,0,1-28.12-5.6,67.77,67.77,0,0,1-22.39-15.7,72.28,72.28,0,0,1-14.88-23.75,81.24,81.24,0,0,1-5.32-29.77,79.1,79.1,0,0,1,5.18-28.53,73.46,73.46,0,0,1,14.48-23.62,68.22,68.22,0,0,1,22.11-16,67.53,67.53,0,0,1,28.4-5.87q26.2,0,43.41,18.3Zm-62.25,69.62a32.69,32.69,0,0,0,9.15,22.94,30,30,0,0,0,10.1,6.83,32.48,32.48,0,0,0,12.7,2.45,31.85,31.85,0,0,0,12.42-2.45,30.11,30.11,0,0,0,10.1-6.83,35.31,35.31,0,0,0,6.82-10.1,29.49,29.49,0,0,0,2.6-12.29,30.36,30.36,0,0,0-2.6-12.42A34.66,34.66,0,0,0,746,289.53a30.11,30.11,0,0,0-10.1-6.83,31.86,31.86,0,0,0-12.42-2.46,32.49,32.49,0,0,0-12.7,2.46,30,30,0,0,0-10.1,6.83,33.4,33.4,0,0,0-6.69,10A29.84,29.84,0,0,0,691.49,311.64Z" transform="translate(-250.48 -51.18)"/>
  <path d="M409.9,410.91V571.45h64.17v45.33H356.38V410.91Z" transform="translate(-250.48 -51.18)"/>
  <path d="M440.47,483.28A71.37,71.37,0,0,1,447,452.81a74.9,74.9,0,0,1,18.3-24.59,87,87,0,0,1,27.89-16.44,100.46,100.46,0,0,1,35.32-6,102.16,102.16,0,0,1,35,5.86,86.81,86.81,0,0,1,28,16.3,73.32,73.32,0,0,1,18.45,24.88,76.21,76.21,0,0,1,6.58,31.9,74.63,74.63,0,0,1-6.72,31.88,75.68,75.68,0,0,1-18.45,24.88,82.4,82.4,0,0,1-28.18,16.16,107.47,107.47,0,0,1-35.6,5.72,102.85,102.85,0,0,1-34.89-5.72,80.35,80.35,0,0,1-27.6-16.3A75.53,75.53,0,0,1,447,516,79.32,79.32,0,0,1,440.47,483.28Zm54.61.57a33.2,33.2,0,0,0,2.72,13.58A36.48,36.48,0,0,0,505,508.16a31.6,31.6,0,0,0,10.59,7.15,34.21,34.21,0,0,0,26,0,31.55,31.55,0,0,0,10.58-7.15,36.29,36.29,0,0,0,7.15-10.73,32.36,32.36,0,0,0,2.72-13.3,31.71,31.71,0,0,0-2.72-13,36.11,36.11,0,0,0-7.15-10.72,31.41,31.41,0,0,0-10.58-7.15,34.09,34.09,0,0,0-26,0A31.45,31.45,0,0,0,505,460.4,36.81,36.81,0,0,0,497.8,471,30.86,30.86,0,0,0,495.08,483.85Z" transform="translate(-250.48 -51.18)"/>
  <path d="M803.43,410.9v129a145.27,145.27,0,0,1-1.35,20.78,90.46,90.46,0,0,1-3.78,16.2,51.08,51.08,0,0,1-10.12,16.6,68.24,68.24,0,0,1-16.6,13.36,88.09,88.09,0,0,1-22,8.91,110.83,110.83,0,0,1-56.29-.81,81.13,81.13,0,0,1-23.61-11.2A65.16,65.16,0,0,1,653.08,587a55.52,55.52,0,0,1-8.64-20.92h55.07q5.12,13.77,23.21,13.77,15.39,0,23.62-8.64t8.23-24V534a80.82,80.82,0,0,1-10.39,8.5A58.67,58.67,0,0,1,734.06,548a48.63,48.63,0,0,1-10.8,3.1,75.72,75.72,0,0,1-12.42,1A70.85,70.85,0,0,1,683.58,547a63,63,0,0,1-35.49-36.31,77.66,77.66,0,0,1-5-28.48,79.49,79.49,0,0,1,5.4-29.55,75.88,75.88,0,0,1,14.71-23.76,67.14,67.14,0,0,1,50.07-21.73q24.56,0,41.3,18.36V410.9ZM693.84,479.46a32.35,32.35,0,0,0,9,22.68,29.7,29.7,0,0,0,10,6.75,32.12,32.12,0,0,0,12.55,2.43,31.47,31.47,0,0,0,12.28-2.43,29.7,29.7,0,0,0,10-6.75A34.64,34.64,0,0,0,754.44,492a31,31,0,0,0,0-24.69,33.76,33.76,0,0,0-6.89-10,31.62,31.62,0,0,0-22.13-9.18,29.14,29.14,0,0,0-12.15,2.57,34.89,34.89,0,0,0-10,6.74,32,32,0,0,0-6.89,9.86A29.08,29.08,0,0,0,693.84,479.46Z" transform="translate(-250.48 -51.18)"/>
  <polyline class="a" points="5.01 5.01 69.53 69.53 593.61 69.53"/>
  <circle cx="617.3" cy="69.75" r="11.18"/>
  <polyline class="a" points="658.27 685.78 593.75 621.26 69.67 621.26"/>
  <circle cx="45.98" cy="621.03" r="11.18"/>
  <g>
    <path d="M369.63,720.37c.39,1.11.68,2.12,1.64,2.12a16.47,16.47,0,0,0,3.7-1.64,4.19,4.19,0,0,1,1.2-.48c.86,0,2.11,2.93,2.11,3.75,0,.58-.58.86-1,1.15a30,30,0,0,1-3.46,1.59c-.48.19-1.1.33-1.1,1a1.76,1.76,0,0,0,.24.72c.52,1.34.86,2,1.44,2,1,0,4.71-2.16,5.71-2.79a2.84,2.84,0,0,1,1.16-.53c.81,0,2.45,3,2.45,3.7s-1.06,1.16-2,1.68c-1.25.63-2.55,1.2-3.84,1.73-.58.24-1.35.48-1.35,1.3,0,1.06,4,7.25,4.85,8.36.39.53,1.16,1.44,1.16,2.06,0,1.11-2.84,3.13-3.89,3.13a1,1,0,0,1-.77-.39,12.83,12.83,0,0,0-8.84-3.41c-2,0-4.76.77-4.76,3.27,0,3.46,4.9,4.22,7.5,4.22a19.4,19.4,0,0,0,2.93-.24c.38,0,1-.09,1.39-.09,1,0,1.15.81,1.15,2.21,0,3-.48,3.07-2.74,3.07-3.12,0-6.34-.09-9.27-1.25-3.36-1.29-5.76-4-5.76-7.73,0-5.24,4.27-7.83,9.13-7.83a14.46,14.46,0,0,1,4.75.82,1.63,1.63,0,0,0,.48.09.43.43,0,0,0,.43-.43,35.33,35.33,0,0,0-1.82-3.51c-.29-.57-.58-1.15-1.3-1.15a1.6,1.6,0,0,0-.67.14c-2.5.77-10.33,2.41-12.78,2.41-.81,0-1-.48-1.25-1.2a12.26,12.26,0,0,1-.57-2.93c0-.92.86-.82,2.11-.92a49.35,49.35,0,0,0,10.23-1.63c.48-.14,1.06-.38,1.06-.91,0-.1-.87-2.79-1.83-2.79-.24,0-1.15.24-1.49.29a44.6,44.6,0,0,1-5.47.86c-.63,0-.82-.28-1.06-.81a11.61,11.61,0,0,1-.82-3.08c0-1,1.25-1,1.93-1a30.85,30.85,0,0,0,3.7-.49c.62-.09,1.24-.33,1.24-1.1a13.16,13.16,0,0,0-1.34-2.93,3.7,3.7,0,0,1-.58-1.25c0-1,3.36-1.68,4.18-1.68C368.86,717.78,369,718.55,369.63,720.37Z" transform="translate(-250.48 -51.18)"/>
    <path d="M421.27,723.64c0,.48-.67.43-1,.43a2.16,2.16,0,0,0-1.3.58c-1.2.86-2.4,1.78-3.6,2.74-2.69,2.21-5.43,4.42-7.93,6.82-.91.86-2,1.82-2,2.73,0,1.21,1.58,2.94,2.4,3.8,2.74,2.93,5.71,5.62,8.69,8.26.82.72,4.13,3.41,4.13,4.37,0,1.16-2.93,3.89-4.08,3.89-.53,0-1.2-.86-1.49-1.24-1.82-2.17-3.84-4.18-5.81-6.2-2.59-2.59-5.24-5.19-7.59-8-1.35-1.54-2.31-2.94-2.31-5.1a5.45,5.45,0,0,1,1.06-3.31,45.47,45.47,0,0,1,6.2-5.62c2.83-2.35,6.72-5.62,9-8.5.19-.24.43-.58.72-.58.62,0,2,1.63,2.54,2.16S421.27,723.11,421.27,723.64Z" transform="translate(-250.48 -51.18)"/>
    <path d="M443.27,745.93c1.1,0,9.36,6.63,9.36,7.83,0,1-2.4,3.7-3.5,3.7-.39,0-.72-.44-1-.72a29.73,29.73,0,0,0-7.3-6.54c-.34-.19-.87-.48-.87-.91C440,748.47,442.45,745.93,443.27,745.93Z" transform="translate(-250.48 -51.18)"/>
    <path d="M493.8,721.91c.38.14,1.25.48,1.25,1,0,.29-.19.39-.43.48-1.11.53-1.4,1-2,2.45A44.44,44.44,0,0,0,490,740.4c0,.77.15,5.34,1.06,5.34.34,0,.58-.63,1.06-1.73.24-.53.72-2.12,1.29-2.12s2.07,1,2.07,1.54-2.35,6-2.35,8.74c0,.77.09,1.54.09,2.31,0,1.87-3.41,2.45-3.65,2.45-.82,0-1.2-.91-1.54-1.59a34.59,34.59,0,0,1-2.83-14.79,55.38,55.38,0,0,1,1.68-13.45c.53-2.12,1.2-4.18,1.73-6.29.05-.34.19-.82.62-.82a17.83,17.83,0,0,1,3.08,1.25C492.93,721.53,493.51,721.81,493.8,721.91Zm19.12-1.39c.24,0,.48.14.48.43s-.29.53-.53,1-.53,1.3-.53,3.41v1.35c0,.67.29,1.24,1,1.24a30.35,30.35,0,0,0,4.8-1.2,4.57,4.57,0,0,1,.72-.14c1,0,1.3,3.31,1.3,4,0,.92-.34,1.25-6,2-1,.15-1.63.34-1.63,1.54,0,1,.34,8.31.39,9.56s.57,1.34,1.63,1.87a27.13,27.13,0,0,1,5.19,3.36c.57.48,1.25,1,1.25,1.83,0,1.1-1.68,3.31-2.79,3.31a2.15,2.15,0,0,1-1.34-.72c-.53-.53-2.93-2.64-3.56-2.64-.48,0-.62.39-.72.77-.86,3.07-4.08,4-7,4-3.85,0-8-1.82-8-6.24s3.8-6,7.55-6a13.19,13.19,0,0,1,1.87.14h.33c.68,0,1-.38,1-1,0-1.2-.25-5.76-.29-7.15,0-.48,0-1.83-1.16-1.83-.38,0-3.79.19-5.71.19h-.63c-1.2,0-3.21-.05-3.65-.38s-.48-3-.48-3.65.05-1.2.77-1.2,4.85.48,7.35.48h.77c1.15,0,2.26-.1,2.26-1.16s-.39-5.66-.58-6.86c0-.15,0-.34,0-.48,0-.44.19-.68.67-.68A45.53,45.53,0,0,1,512.92,720.52Zm-7.45,27c-1.1,0-3.46.38-3.46,1.87s2.31,2.06,3.51,2.06c1.82,0,3-.67,3-2.64C508.55,747.51,506.38,747.47,505.47,747.47Z" transform="translate(-250.48 -51.18)"/>
    <path d="M549,718.55c.24.09.77.24.77.57s-.34.53-.77.87a8.47,8.47,0,0,0-.87,2.54,16.36,16.36,0,0,0-.52,2.17.56.56,0,0,0,.52.62,23.77,23.77,0,0,0,2.74-.72,1.72,1.72,0,0,1,.48-.1c.58,0,.63.87.72,1.45a21.81,21.81,0,0,1,.24,2.54c0,1.06-.57,1.15-5,2-1.73.29-1.68.63-2.26,2.21a121.73,121.73,0,0,1-7.83,17.1c-.29.48-.43.67-1,.67-1.06,0-4.28-1.39-4.28-2.4a5.42,5.42,0,0,1,.87-1.73,90.07,90.07,0,0,0,5.71-11.09,18.09,18.09,0,0,0,1.11-2.93.65.65,0,0,0-.67-.63c-.39,0-4.09.48-5.19.48-.82,0-1-.43-1.2-1.54-.1-.57-.34-2.3-.34-2.78,0-.63.34-.77.87-.77h2.21a43.28,43.28,0,0,0,4.95-.24c.62-.1,1.05-.14,1.43-.77.73-1.2,1.54-6.53,1.54-8.07,0-.33,0-.82.44-.82S548.22,718.31,549,718.55Zm6.92,14.31c.52.15,1,.43,1,1,0,.1-.1,1.54-.1,2.55,0,1.39.24,8.31.48,9.32.14.72.77.91,1.49,1.2.14,0,.34.14.48.19,1.1.43,6.77,3.07,6.77,4.23,0,.76-1.77,3.5-3,3.5-.47,0-.91-.43-1.24-.67-.72-.53-3.08-2.21-3.85-2.21-.53,0-.72.67-.77,1.1-.57,3.51-3.41,4.71-6.67,4.71-3.89,0-8.46-2.06-8.46-6.53s4.18-6,8-6h1.25c.57,0,1-.24,1-.81,0-1.54-.71-8.51-.86-10.38,0-.24,0-.43,0-.67,0-.77.44-1.06,1.15-1.06A20.41,20.41,0,0,1,555.91,732.86Zm-9,18.3c0,1.49,1.92,2.26,3.17,2.26,1.73,0,2.5-.91,2.5-2.59,0-1-.05-1.49-2.45-1.49C549,749.34,546.92,749.63,546.92,751.16Zm21-18.35c0,1.16-2.73,3.32-3.6,3.32-.48,0-.82-.53-1.06-.87a27.1,27.1,0,0,0-6-6.19c-.19-.15-.62-.43-.62-.77,0-.67,2.21-3.32,3.21-3.32C561.05,725,567.91,731.56,567.91,732.81Z" transform="translate(-250.48 -51.18)"/>
    <path d="M598.89,717.68c1.16.1,2.6.24,2.6.68a.69.69,0,0,1-.29.52c-.33.24-.72.63-.77,2,0,1,0,2.07,0,3.08a1.26,1.26,0,0,0,1.39,1.39c.38,0,2.26-.14,2.78-.14,2.36-.1,7.5-.39,9.56-.39.77,0,1.11.29,1.11,2.45,0,2.93-.58,2.88-1.06,2.88-.67,0-4.28-.24-7-.24-.87,0-5.34.05-5.86.19a1.55,1.55,0,0,0-.92,1.59v1.68a4.08,4.08,0,0,0,.48,2.5,14.74,14.74,0,0,1,1.49,6.72c0,7.74-5.14,16.33-7.25,16.33-.58,0-4.47-1.2-4.47-2.06,0-.38.82-1.06,1.11-1.35a15.44,15.44,0,0,0,3.45-4.65,1.8,1.8,0,0,0,.24-.73.35.35,0,0,0-.33-.33,1,1,0,0,0-.39,0,4.71,4.71,0,0,1-1.1.24c-4.18,0-5.72-4.52-5.72-8,0-4.41,1.93-8.64,6.78-9.07a.62.62,0,0,0,.57-.58c0-1.78-.33-2-.86-2s-2.6.24-3.17.29c-2.5.24-8.7.91-11,1.39a3.57,3.57,0,0,1-.72.1c-.77,0-.82-.67-1-1.3a26.94,26.94,0,0,1-.39-3.46c0-1,.44-.86,2.79-1,1.3,0,12.58-.67,13-.76a1.41,1.41,0,0,0,1-1.49,40.72,40.72,0,0,0-.48-6,1,1,0,0,1-.05-.38c0-.39.24-.58.63-.58C596.25,717.3,597.74,717.59,598.89,717.68Zm-6.33,24.07c0,1.44.33,4.08,2.25,4.08s2.5-2.45,2.5-3.94-.43-4.22-2.4-4.22S592.56,740.31,592.56,741.75Z" transform="translate(-250.48 -51.18)"/>
    <path d="M628.68,745.93c1.1,0,9.36,6.63,9.36,7.83,0,1-2.4,3.7-3.5,3.7-.39,0-.73-.44-1-.72a29.37,29.37,0,0,0-7.3-6.54c-.33-.19-.86-.48-.86-.91C625.41,748.47,627.86,745.93,628.68,745.93Z" transform="translate(-250.48 -51.18)"/>
    <path d="M691.12,717.68c1.15.1,2.59.24,2.59.68a.69.69,0,0,1-.29.52c-.33.24-.72.63-.76,2,0,1,0,2.07,0,3.08a1.26,1.26,0,0,0,1.39,1.39c.39,0,2.26-.14,2.79-.14,2.35-.1,7.49-.39,9.56-.39.76,0,1.1.29,1.1,2.45,0,2.93-.58,2.88-1.06,2.88-.67,0-4.27-.24-7-.24-.87,0-5.33.05-5.86.19a1.56,1.56,0,0,0-.91,1.59v1.68a4,4,0,0,0,.48,2.5,14.86,14.86,0,0,1,1.49,6.72c0,7.74-5.14,16.33-7.26,16.33-.57,0-4.47-1.2-4.47-2.06,0-.38.82-1.06,1.11-1.35a15.47,15.47,0,0,0,3.46-4.65,2,2,0,0,0,.24-.73.36.36,0,0,0-.34-.33,1,1,0,0,0-.38,0,4.9,4.9,0,0,1-1.11.24c-4.18,0-5.71-4.52-5.71-8,0-4.41,1.92-8.64,6.77-9.07a.63.63,0,0,0,.58-.58c0-1.78-.34-2-.87-2s-2.59.24-3.17.29c-2.5.24-8.69.91-11,1.39a3.57,3.57,0,0,1-.72.1c-.77,0-.82-.67-1-1.3a28.82,28.82,0,0,1-.38-3.46c0-1,.43-.86,2.78-1,1.3,0,12.59-.67,13-.76a1.42,1.42,0,0,0,1.06-1.49,42.15,42.15,0,0,0-.48-6,1,1,0,0,1,0-.38.54.54,0,0,1,.62-.58C688.48,717.3,690,717.59,691.12,717.68Zm-6.34,24.07c0,1.44.34,4.08,2.26,4.08s2.49-2.45,2.49-3.94-.43-4.22-2.4-4.22S684.78,740.31,684.78,741.75Z" transform="translate(-250.48 -51.18)"/>
    <path d="M738.19,717.68c1.15.1,2.6.24,2.6.68a.72.72,0,0,1-.29.52c-.34.24-.72.63-.77,2-.05,1-.05,2.07-.05,3.08a1.26,1.26,0,0,0,1.39,1.39c.39,0,2.26-.14,2.79-.14,2.35-.1,7.49-.39,9.56-.39.77,0,1.1.29,1.1,2.45,0,2.93-.57,2.88-1,2.88-.68,0-4.28-.24-7-.24-.86,0-5.33.05-5.86.19a1.56,1.56,0,0,0-.91,1.59v1.68a4.08,4.08,0,0,0,.48,2.5,14.74,14.74,0,0,1,1.49,6.72c0,7.74-5.14,16.33-7.26,16.33-.57,0-4.46-1.2-4.46-2.06,0-.38.81-1.06,1.1-1.35a15.31,15.31,0,0,0,3.46-4.65,1.8,1.8,0,0,0,.24-.73.36.36,0,0,0-.34-.33,1,1,0,0,0-.38,0,4.94,4.94,0,0,1-1.1.24c-4.18,0-5.72-4.52-5.72-8,0-4.41,1.92-8.64,6.77-9.07a.63.63,0,0,0,.58-.58c0-1.78-.34-2-.87-2s-2.59.24-3.17.29c-2.49.24-8.69.91-11,1.39a3.57,3.57,0,0,1-.72.1c-.77,0-.81-.67-1-1.3a28.82,28.82,0,0,1-.38-3.46c0-1,.43-.86,2.78-1,1.3,0,12.59-.67,13-.76a1.42,1.42,0,0,0,1.06-1.49,40.72,40.72,0,0,0-.48-6,1,1,0,0,1,0-.38.54.54,0,0,1,.62-.58C735.55,717.3,737,717.59,738.19,717.68Zm-6.34,24.07c0,1.44.34,4.08,2.26,4.08s2.5-2.45,2.5-3.94-.44-4.22-2.41-4.22S731.85,740.31,731.85,741.75Z" transform="translate(-250.48 -51.18)"/>
    <path d="M781.52,718.79c.29.05.77.19.77.53a1.1,1.1,0,0,1-.39.72,4.31,4.31,0,0,0-.77,2.88.75.75,0,0,0,.77.82,27.82,27.82,0,0,0,3.89-1.06,1.78,1.78,0,0,1,.58-.1c.91,0,1.15,3.13,1.15,3.85,0,1.2-.77,1.2-5.23,2.11-1.25.24-1.64.53-1.73,1.82,0,1.06-.34,5.91-.34,6.68a6.39,6.39,0,0,0,.14,1.3,10,10,0,0,1,.15,1.73,17.34,17.34,0,0,1-.77,4.66,24.14,24.14,0,0,0-1,4.9c0,2.54,4.32,2.3,6.05,2.3,2.12,0,6.39-.09,8-1.68,1.1-1.1,1.39-3.46,1.53-5s.1-2.26,1.25-2.26,4,.91,4,2.26a17.38,17.38,0,0,1-2.45,7.63c-1.54,2-3.65,2.79-6.06,3.27a39.11,39.11,0,0,1-7.49.62c-4.47,0-9.56-.57-9.56-6.24a10,10,0,0,1,.29-2c0-.09,0-.19,0-.29a.49.49,0,0,0-.53-.48,2.11,2.11,0,0,0-.53.15,2.7,2.7,0,0,1-.86.19c-3.56,0-4.71-4-4.71-7,0-3.41,1.73-8,5.86-8,.67,0,1.15.19,1.58.19s.58-.62.58-2.25c0-.63,0-1.25-.67-1.25-.19,0-1.54.19-1.83.24-.91.09-3.55.48-4.37.48s-1-.34-1.15-1a24.85,24.85,0,0,1-.43-3.17c0-.92.38-.92,1.15-.92a38.8,38.8,0,0,0,6.39-.48c1.06-.29,1.06-1.44,1.06-2.35a18.16,18.16,0,0,0-.29-3.6c0-.15,0-.39,0-.53,0-.39.24-.53.62-.53S781,718.69,781.52,718.79ZM772,741c0,.86.24,2.54,1.39,2.54,1.54,0,2.4-2.64,2.4-3.89,0-1-.67-2.21-1.78-2.21C772.44,737.47,772,739.83,772,741Zm31.27-7.64c0,.82-2.64,3-3.41,3-.58,0-1-.68-1.35-1.2a30.4,30.4,0,0,0-5.81-5.58c-.29-.19-.63-.48-.63-.81,0-.72,2-3,2.84-3C796.36,725.8,803.28,732.24,803.28,733.39Z" transform="translate(-250.48 -51.18)"/>
  </g>
</svg>
