<svg xmlns="http://www.w3.org/2000/svg" width="665.35" height="665.35" viewBox="0 0 665.35 665.35">
  <defs>
    <style>
      .a {
        fill: none;
        stroke: #000;
        stroke-miterlimit: 10;
        stroke-width: 11px;
      }
    </style>
  </defs>
  <g>
    <g>
      <g>
        <path d="M407.68,573.59c.28.8.49,1.54,1.19,1.54a11.48,11.48,0,0,0,2.69-1.2,3.2,3.2,0,0,1,.88-.34c.63,0,1.54,2.13,1.54,2.73,0,.42-.42.63-.74.84a23.79,23.79,0,0,1-2.52,1.15c-.35.14-.8.25-.8.7a1.32,1.32,0,0,0,.17.53c.39,1,.63,1.43,1.05,1.43.74,0,3.43-1.57,4.17-2a2,2,0,0,1,.84-.38c.59,0,1.78,2.17,1.78,2.69s-.77.84-1.47,1.23c-.91.45-1.85.87-2.8,1.26-.42.17-1,.35-1,.94,0,.77,2.91,5.29,3.54,6.09.28.39.84,1.05.84,1.51,0,.8-2.07,2.27-2.84,2.27a.73.73,0,0,1-.56-.28,9.37,9.37,0,0,0-6.44-2.48c-1.47,0-3.46.56-3.46,2.38,0,2.52,3.57,3.08,5.46,3.08a13.92,13.92,0,0,0,2.13-.18c.28,0,.7-.07,1-.07.7,0,.84.6.84,1.61,0,2.17-.35,2.24-2,2.24a18.41,18.41,0,0,1-6.76-.91,6,6,0,0,1-4.2-5.63c0-3.82,3.12-5.71,6.65-5.71a10.46,10.46,0,0,1,3.47.6,1.55,1.55,0,0,0,.35.07A.32.32,0,0,0,411,589a26.68,26.68,0,0,0-1.33-2.55c-.21-.42-.42-.84-.95-.84a1.13,1.13,0,0,0-.49.1,55.19,55.19,0,0,1-9.31,1.75c-.6,0-.74-.35-.91-.87a8.63,8.63,0,0,1-.42-2.14c0-.66.63-.59,1.54-.66a36.36,36.36,0,0,0,7.46-1.19c.35-.11.77-.28.77-.67,0-.07-.63-2-1.33-2-.18,0-.84.18-1.09.21a31.45,31.45,0,0,1-4,.63c-.46,0-.6-.21-.77-.59a8.55,8.55,0,0,1-.6-2.24c0-.74.91-.7,1.41-.74a21,21,0,0,0,2.69-.35c.46-.07.91-.24.91-.8a9.7,9.7,0,0,0-1-2.14,2.57,2.57,0,0,1-.42-.91c0-.74,2.45-1.23,3-1.23C407.11,571.69,407.19,572.26,407.68,573.59Z" transform="translate(-262.6 -88.27)"/>
        <path d="M429,580.48c4.13-1.47,8.51-3.25,12.92-3.25a9.3,9.3,0,0,1,6.9,2.59,9,9,0,0,1,2.38,6.12c0,6.09-5.18,9.87-10.36,11.62a25.39,25.39,0,0,1-5.43,1.26c-.6,0-.84-.38-1.12-.87a7.22,7.22,0,0,1-.81-2.35c0-.63.74-.66,1.23-.7,4.9-.42,12.53-3,12.53-9,0-3.08-2.38-4.86-5.28-4.86-4.91,0-10.33,2.59-14.6,4.79a2.32,2.32,0,0,1-.95.28c-1.05,0-2.62-2.52-2.62-3.5,0-.45.38-.56,1.78-1C426.4,581.36,427.48,581,429,580.48Zm23.67-2.66c0,.53-1.23,1.65-1.68,1.65-.21,0-.35-.25-.49-.42-.81-.91-1.65-1.82-2.56-2.7a.67.67,0,0,1-.31-.45c0-.39,1.29-1.47,1.64-1.47A13.52,13.52,0,0,1,452.69,577.82Zm3.25-2.66c0,.49-1.19,1.64-1.64,1.64-.21,0-.46-.31-.81-.69-.73-.85-1.5-1.58-2.31-2.39a.67.67,0,0,1-.28-.45c0-.42,1.3-1.51,1.65-1.51S455.94,574.71,455.94,575.16Z" transform="translate(-262.6 -88.27)"/>
        <path d="M480.3,576c0,.35-.49.31-.73.31a1.62,1.62,0,0,0-.95.42c-.87.63-1.75,1.3-2.62,2-2,1.61-4,3.22-5.78,5-.67.63-1.44,1.33-1.44,2,0,.88,1.16,2.14,1.75,2.77,2,2.13,4.17,4.09,6.34,6,.6.52,3,2.48,3,3.18s-2.13,2.84-3,2.84c-.39,0-.88-.63-1.09-.91-1.33-1.58-2.8-3-4.24-4.52-1.88-1.89-3.81-3.78-5.53-5.81a5.31,5.31,0,0,1-1.68-3.71,4,4,0,0,1,.77-2.41,33.75,33.75,0,0,1,4.52-4.1,46.92,46.92,0,0,0,6.55-6.2c.14-.17.31-.42.52-.42.46,0,1.47,1.2,1.86,1.58S480.3,575.58,480.3,576Z" transform="translate(-262.6 -88.27)"/>
        <path d="M496.33,592.21c.8,0,6.82,4.83,6.82,5.7s-1.75,2.7-2.55,2.7c-.28,0-.53-.32-.7-.53a21.75,21.75,0,0,0-5.32-4.76c-.25-.14-.63-.35-.63-.66A4.74,4.74,0,0,1,496.33,592.21Z" transform="translate(-262.6 -88.27)"/>
        <path d="M530.14,580c4.1-1.44,8.51-3.23,12.92-3.23a9.43,9.43,0,0,1,6.89,2.56,9.05,9.05,0,0,1,2.38,6.16c0,5.39-4.27,9.17-9,11.1a28.17,28.17,0,0,1-6.82,1.75c-.6,0-.84-.35-1.12-.84a7.55,7.55,0,0,1-.81-2.35c0-.63.74-.7,1.19-.73,4.9-.39,12.57-3,12.57-9,0-3.11-2.42-4.86-5.36-4.86-4.86,0-10.29,2.59-14.56,4.79a2,2,0,0,1-.91.28c-1.09,0-2.66-2.52-2.66-3.5,0-.45.42-.59,1.89-1C527.58,580.87,528.67,580.55,530.14,580Z" transform="translate(-262.6 -88.27)"/>
        <path d="M564.82,580.48c4.14-1.47,8.51-3.25,12.92-3.25a9.3,9.3,0,0,1,6.9,2.59,9,9,0,0,1,2.38,6.12c0,6.09-5.18,9.87-10.36,11.62a25.39,25.39,0,0,1-5.43,1.26c-.59,0-.84-.38-1.12-.87a7.2,7.2,0,0,1-.8-2.35c0-.63.73-.66,1.22-.7,4.9-.42,12.53-3,12.53-9,0-3.08-2.38-4.86-5.28-4.86-4.9,0-10.33,2.59-14.6,4.79a2.32,2.32,0,0,1-.94.28c-1.06,0-2.63-2.52-2.63-3.5,0-.45.38-.56,1.78-1C562.2,581.36,563.28,581,564.82,580.48Zm23.67-2.66c0,.53-1.23,1.65-1.68,1.65-.21,0-.35-.25-.49-.42-.81-.91-1.65-1.82-2.56-2.7a.67.67,0,0,1-.31-.45c0-.39,1.29-1.47,1.64-1.47A13.52,13.52,0,0,1,588.49,577.82Zm3.25-2.66c0,.49-1.19,1.64-1.64,1.64-.21,0-.46-.31-.81-.69-.73-.85-1.5-1.58-2.31-2.39a.67.67,0,0,1-.28-.45c0-.42,1.3-1.51,1.65-1.51S591.74,574.71,591.74,575.16Z" transform="translate(-262.6 -88.27)"/>
        <path d="M616,576.49c0,.25-.38.46-.77.74a33.11,33.11,0,0,0-5.07,4.69,1,1,0,0,0-.35.59c0,.28.28.46.59.46a2.44,2.44,0,0,0,.46-.07,6.31,6.31,0,0,1,1.43-.14,10.29,10.29,0,0,1,4.31,1,7.22,7.22,0,0,1,4.16,6.79c0,6.19-5.49,9.41-11.13,9.41-2.9,0-7-1.19-7-4.76A4.39,4.39,0,0,1,607,591a5.71,5.71,0,0,1,4.65,2.48,3.46,3.46,0,0,1,.63,2.24c0,.25.14.46.42.46a5.7,5.7,0,0,0,4.24-5.39c0-3.4-2.87-4.8-5.92-4.8a10.65,10.65,0,0,0-7.84,3.43c-1.36,1.33-2.62,2.77-3.89,4.2a.47.47,0,0,1-.38.25c-.74,0-2.52-2-2.52-2.52s.52-.81.84-1a143,143,0,0,0,10.89-11c.28-.28.91-.91.91-1.26s-.32-.42-.6-.42a7.35,7.35,0,0,0-.84.14c-.84.21-5.77,1.22-6.34,1.22-.76,0-.87-2.62-.87-3.22,0-.8,0-.87,1.09-.87h.84a32.21,32.21,0,0,0,8.85-1.3,4.89,4.89,0,0,1,1.33-.39C613.93,573.23,616,575.9,616,576.49Zm-8.85,17.36a1.45,1.45,0,0,0-1.51,1.4c0,1.26,1.68,1.86,2.73,1.86.67,0,.95-.63.95-1.19A2.14,2.14,0,0,0,607.11,593.85Z" transform="translate(-262.6 -88.27)"/>
        <path d="M632.13,592.21c.81,0,6.83,4.83,6.83,5.7s-1.76,2.7-2.56,2.7c-.28,0-.53-.32-.7-.53a21.57,21.57,0,0,0-5.32-4.76c-.25-.14-.63-.35-.63-.66A4.74,4.74,0,0,1,632.13,592.21Z" transform="translate(-262.6 -88.27)"/>
        <path d="M667.34,580c4.09-1.44,8.51-3.23,12.92-3.23a9.43,9.43,0,0,1,6.89,2.56,9.05,9.05,0,0,1,2.38,6.16c0,5.39-4.27,9.17-9,11.1a28.13,28.13,0,0,1-6.83,1.75c-.59,0-.84-.35-1.12-.84a7.53,7.53,0,0,1-.8-2.35c0-.63.73-.7,1.19-.73,4.9-.39,12.57-3,12.57-9,0-3.11-2.42-4.86-5.36-4.86-4.86,0-10.29,2.59-14.56,4.79a2,2,0,0,1-.91.28c-1.09,0-2.66-2.52-2.66-3.5,0-.45.42-.59,1.89-1C664.78,580.87,665.87,580.55,667.34,580Z" transform="translate(-262.6 -88.27)"/>
        <path d="M711.27,572.26c.17.06.55.17.55.42s-.24.38-.55.62a6.09,6.09,0,0,0-.63,1.86,10.64,10.64,0,0,0-.39,1.58.41.41,0,0,0,.39.45,17.83,17.83,0,0,0,2-.52,1.17,1.17,0,0,1,.35-.08c.42,0,.46.64.53,1.06a16.52,16.52,0,0,1,.17,1.85c0,.77-.42.84-3.64,1.44-1.26.21-1.22.45-1.64,1.61A89.35,89.35,0,0,1,702.69,595c-.21.35-.32.49-.7.49-.77,0-3.12-1-3.12-1.75a3.92,3.92,0,0,1,.63-1.26,65.12,65.12,0,0,0,4.17-8.09,13.91,13.91,0,0,0,.8-2.13.47.47,0,0,0-.49-.46c-.28,0-3,.35-3.78.35-.59,0-.73-.31-.87-1.12-.07-.42-.25-1.68-.25-2s.25-.56.63-.56h1.61a31.16,31.16,0,0,0,3.61-.17,1.21,1.21,0,0,0,1.05-.56,21.59,21.59,0,0,0,1.12-5.88c0-.25,0-.6.31-.6S710.7,572.08,711.27,572.26Zm5,10.43c.38.1.7.31.7.73,0,.07-.07,1.12-.07,1.86,0,1,.17,6.05.35,6.79.1.52.56.66,1.08.87l.35.14c.81.32,4.94,2.24,4.94,3.08,0,.56-1.3,2.56-2.17,2.56-.35,0-.67-.32-.91-.49a9.9,9.9,0,0,0-2.8-1.61c-.39,0-.53.49-.56.8-.42,2.56-2.49,3.43-4.87,3.43-2.83,0-6.16-1.5-6.16-4.76s3-4.34,5.81-4.34h.91c.42,0,.74-.17.74-.59,0-1.12-.53-6.2-.63-7.56,0-.18,0-.32,0-.49,0-.56.32-.77.84-.77A14.64,14.64,0,0,1,716.31,582.69ZM709.76,596c0,1.09,1.4,1.65,2.31,1.65,1.26,0,1.82-.67,1.82-1.89,0-.7,0-1.09-1.78-1.09C711.27,594.69,709.76,594.9,709.76,596Zm15.3-13.37c0,.84-2,2.42-2.63,2.42-.35,0-.59-.39-.77-.63a19.73,19.73,0,0,0-4.37-4.52c-.14-.1-.46-.31-.46-.56,0-.49,1.61-2.41,2.35-2.41S725.06,581.74,725.06,582.65Z" transform="translate(-262.6 -88.27)"/>
        <path d="M745.81,573.59c.28.07.91.17.91.55,0,.21-.14.32-.32.46-.66.49-.73,1-.91,2.31-.06.39-.13.88-.24,1.44a1.54,1.54,0,0,0-.07.42.68.68,0,0,0,.77.7h.42a7,7,0,0,1,4,.77c1.75,1.15,2.17,3.15,2.17,5.11,0,3.18-.56,7.91-2.1,10.71a7.17,7.17,0,0,1-6.62,3.78c-.77,0-1.26-.07-1.61-.81a7.09,7.09,0,0,1-.63-2.52c0-.31.1-.59.49-.59s.87.14,1.58.14c1.92,0,2.79-.42,3.67-2.17a20.79,20.79,0,0,0,1.58-7.91c0-1.72-.11-3.19-2.25-3.19-2,0-2.34.28-2.58,1.26a39.76,39.76,0,0,1-4.49,10.47,31.43,31.43,0,0,1-3.46,5,.83.83,0,0,1-.6.35c-.63,0-2.87-1.33-2.87-2.14a1.31,1.31,0,0,1,.49-.8,27.82,27.82,0,0,0,6.27-9.73,13.47,13.47,0,0,0,.87-2.66.44.44,0,0,0-.45-.46,28.21,28.21,0,0,0-4,1.23,2.61,2.61,0,0,1-.73.24c-.84,0-1.44-3.43-1.44-3.64,0-.52.6-.52,1-.56,2-.21,3.92-.7,5.84-1.05.7-.14,1-.35,1.12-1.08a32.43,32.43,0,0,0,.39-4.52c0-.56-.07-1.29-.07-1.37,0-.28.1-.52.42-.52S745.28,573.45,745.81,573.59Zm14.56,11.58c0,.81-2.2,2.1-2.9,2.1-.46,0-.67-.45-.81-.8A25.54,25.54,0,0,0,752,579a1.12,1.12,0,0,1-.31-.6c0-.63,1.92-1.79,2.48-1.79C755.47,576.59,760.37,584.3,760.37,585.17Zm-.52-9c0,.56-1.23,1.61-1.68,1.61-.18,0-.35-.24-.49-.38a29,29,0,0,0-2.49-2.7c-.14-.14-.31-.31-.31-.49,0-.42,1.26-1.47,1.68-1.47A14,14,0,0,1,759.85,576.21Zm3.32-2.49c0,.57-1.26,1.62-1.68,1.62-.21,0-.31-.18-.49-.39-.8-.94-1.61-1.82-2.48-2.69-.14-.11-.35-.32-.35-.5,0-.42,1.33-1.46,1.68-1.46A14.19,14.19,0,0,1,763.17,573.72Z" transform="translate(-262.6 -88.27)"/>
        <path d="M788.16,576.49c0,.25-.38.46-.77.74a33.11,33.11,0,0,0-5.07,4.69,1,1,0,0,0-.35.59c0,.28.27.46.59.46a2.44,2.44,0,0,0,.46-.07,6.31,6.31,0,0,1,1.43-.14,10.29,10.29,0,0,1,4.31,1,7.22,7.22,0,0,1,4.16,6.79c0,6.19-5.49,9.41-11.13,9.41-2.91,0-7-1.19-7-4.76a4.4,4.4,0,0,1,4.49-4.23,5.71,5.71,0,0,1,4.65,2.48,3.46,3.46,0,0,1,.63,2.24c0,.25.14.46.42.46a5.7,5.7,0,0,0,4.24-5.39c0-3.4-2.87-4.8-5.92-4.8a10.64,10.64,0,0,0-7.84,3.43c-1.37,1.33-2.63,2.77-3.89,4.2a.47.47,0,0,1-.38.25c-.74,0-2.52-2-2.52-2.52s.52-.81.84-1a144.81,144.81,0,0,0,10.89-11c.28-.28.91-.91.91-1.26s-.32-.42-.6-.42a7,7,0,0,0-.84.14c-.84.21-5.78,1.22-6.34,1.22-.77,0-.87-2.62-.87-3.22,0-.8,0-.87,1.08-.87h.84a32.29,32.29,0,0,0,8.86-1.3,4.89,4.89,0,0,1,1.33-.39C786.13,573.23,788.16,575.9,788.16,576.49Zm-8.85,17.36a1.45,1.45,0,0,0-1.51,1.4c0,1.26,1.68,1.86,2.73,1.86.67,0,1-.63,1-1.19A2.14,2.14,0,0,0,779.31,593.85Z" transform="translate(-262.6 -88.27)"/>
      </g>
      <g>
        <path d="M442.49,241h54.16a63.87,63.87,0,0,1,27,5.79,73.39,73.39,0,0,1,22,15.41,71.73,71.73,0,0,1,14.85,22.41,69.15,69.15,0,0,1,.09,53.41,71.38,71.38,0,0,1-14.75,22.51,72.81,72.81,0,0,1-22,15.5,64.29,64.29,0,0,1-27.17,5.79H442.49ZM479.1,350.86h8.4a45.56,45.56,0,0,0,17-3,36.15,36.15,0,0,0,12.6-8.22A35.16,35.16,0,0,0,525,327.23a44.53,44.53,0,0,0,2.71-15.78,43.28,43.28,0,0,0-2.81-15.69A35.22,35.22,0,0,0,504.31,275a45,45,0,0,0-16.81-3h-8.4Z" transform="translate(-262.6 -88.27)"/>
        <path d="M582.24,260.08a18.29,18.29,0,0,1,1.5-7.37,19.3,19.3,0,0,1,4.1-6.07,19.55,19.55,0,0,1,6.08-4.11,19,19,0,0,1,14.75,0,19.39,19.39,0,0,1,10.18,10.18,19,19,0,0,1,0,14.75,19.39,19.39,0,0,1-4.11,6.07,19.17,19.17,0,0,1-6.07,4.11,18.88,18.88,0,0,1-14.75,0,19.3,19.3,0,0,1-10.18-10.18A18.31,18.31,0,0,1,582.24,260.08Zm36,26v95.81H584.48V286.05Z" transform="translate(-262.6 -88.27)"/>
        <path d="M714.29,286.05h34v95.81h-34V371.21Q703.46,384.85,685,384.85A47.61,47.61,0,0,1,665.74,381a46.27,46.27,0,0,1-15.32-10.74A49.57,49.57,0,0,1,640.24,354a55.49,55.49,0,0,1-3.64-20.36,53.88,53.88,0,0,1,3.55-19.51,50,50,0,0,1,9.9-16.16,46,46,0,0,1,34.55-14.94q17.92,0,29.69,12.51Zm-42.58,47.62A22.3,22.3,0,0,0,678,349.36a20.54,20.54,0,0,0,6.91,4.67,22.28,22.28,0,0,0,8.69,1.68,21.8,21.8,0,0,0,8.49-1.68,20.54,20.54,0,0,0,6.91-4.67,24.18,24.18,0,0,0,4.67-6.91,20.23,20.23,0,0,0,1.78-8.4,20.86,20.86,0,0,0-1.78-8.5,23.82,23.82,0,0,0-4.67-7,20.56,20.56,0,0,0-6.91-4.68,21.8,21.8,0,0,0-8.49-1.68,22.28,22.28,0,0,0-8.69,1.68,20.56,20.56,0,0,0-6.91,4.68,23.18,23.18,0,0,0-4.58,6.81A20.43,20.43,0,0,0,671.71,333.67Z" transform="translate(-262.6 -88.27)"/>
        <path d="M479.1,401.57V511.39H523v31h-80.5V401.57Z" transform="translate(-262.6 -88.27)"/>
        <path d="M500,451.07a48.8,48.8,0,0,1,4.49-20.83A51.36,51.36,0,0,1,517,413.41a59.59,59.59,0,0,1,19.08-11.24,68.54,68.54,0,0,1,24.16-4.11,69.85,69.85,0,0,1,24,4,59.37,59.37,0,0,1,19.18,11.15,50.13,50.13,0,0,1,12.61,17,52,52,0,0,1,4.5,21.81,51,51,0,0,1-4.6,21.81,51.88,51.88,0,0,1-12.61,17A56.54,56.54,0,0,1,584,501.93a73.62,73.62,0,0,1-24.35,3.92,70.48,70.48,0,0,1-23.87-3.92,55,55,0,0,1-18.88-11.15,51.66,51.66,0,0,1-12.42-17.31A54.32,54.32,0,0,1,500,451.07Zm37.36.39a22.91,22.91,0,0,0,1.85,9.3,25.07,25.07,0,0,0,4.89,7.33,21.48,21.48,0,0,0,7.25,4.89,23.38,23.38,0,0,0,17.8,0,21.4,21.4,0,0,0,7.23-4.89,24.71,24.71,0,0,0,4.9-7.33,22.27,22.27,0,0,0,1.85-9.1,21.74,21.74,0,0,0-1.85-8.9,24.76,24.76,0,0,0-4.9-7.34,21.55,21.55,0,0,0-7.23-4.89,23.38,23.38,0,0,0-17.8,0,21.63,21.63,0,0,0-7.25,4.89,25.58,25.58,0,0,0-4.89,7.24A21.23,21.23,0,0,0,537.37,451.46Z" transform="translate(-262.6 -88.27)"/>
        <path d="M748.28,401.57v88.25a99.19,99.19,0,0,1-.92,14.22,61.38,61.38,0,0,1-2.59,11.08,34.6,34.6,0,0,1-6.92,11.35,46.75,46.75,0,0,1-11.36,9.15,60.38,60.38,0,0,1-15,6.09,75.74,75.74,0,0,1-38.5-.55,55.45,55.45,0,0,1-16.16-7.67A44.55,44.55,0,0,1,645.44,522a37.69,37.69,0,0,1-5.91-14.31H677.2q3.49,9.42,15.87,9.42,10.53,0,16.16-5.91t5.63-16.43v-9.05a56.32,56.32,0,0,1-7.1,5.82,40.74,40.74,0,0,1-6.93,3.78,33.1,33.1,0,0,1-7.39,2.13,51.81,51.81,0,0,1-8.49.64,48.55,48.55,0,0,1-18.65-3.5A43.09,43.09,0,0,1,642,469.79a53.18,53.18,0,0,1-3.41-19.48,54.2,54.2,0,0,1,3.69-20.21,51.82,51.82,0,0,1,10.06-16.25A45.87,45.87,0,0,1,686.61,399a36.72,36.72,0,0,1,28.25,12.56v-10Zm-75,46.9A22.13,22.13,0,0,0,679.5,464a20.19,20.19,0,0,0,6.84,4.61,21.91,21.91,0,0,0,8.58,1.66,21.52,21.52,0,0,0,8.4-1.66,20.15,20.15,0,0,0,6.83-4.61,23.47,23.47,0,0,0,4.62-6.93,20.53,20.53,0,0,0,1.75-8.4,20.31,20.31,0,0,0-1.75-8.49,22.77,22.77,0,0,0-4.71-6.83,21.43,21.43,0,0,0-6.92-4.62,21.07,21.07,0,0,0-8.22-1.66,20,20,0,0,0-8.31,1.75,23.92,23.92,0,0,0-6.83,4.62,21.76,21.76,0,0,0-4.71,6.74A19.88,19.88,0,0,0,673.32,448.47Z" transform="translate(-262.6 -88.27)"/>
      </g>
    </g>
    <polyline class="a" points="30.56 114.43 90.56 114.43 90.56 575.21 551.34 575.21 551.34 635.21"/>
    <polyline class="a" points="551.34 60.06 60.56 60.06 60.56 550.84"/>
    <polyline class="a" points="114.94 30.06 114.94 90.06 575.71 90.06 575.71 550.84 635.71 550.84"/>
    <polyline class="a" points="114.94 605.21 605.71 605.21 605.71 114.43"/>
    <circle cx="654.18" cy="551.18" r="11.18"/>
    <circle cx="551.18" cy="654.18" r="11.18"/>
    <circle cx="11.18" cy="114.18" r="11.18"/>
    <circle cx="115.18" cy="11.18" r="11.18"/>
  </g>
</svg>
