<?xml version="1.0" encoding="UTF-8" standalone="no"?>
<svg
   xmlns:dc="http://purl.org/dc/elements/1.1/"
   xmlns:cc="http://creativecommons.org/ns#"
   xmlns:rdf="http://www.w3.org/1999/02/22-rdf-syntax-ns#"
   xmlns:svg="http://www.w3.org/2000/svg"
   xmlns="http://www.w3.org/2000/svg"
   xmlns:sodipodi="http://sodipodi.sourceforge.net/DTD/sodipodi-0.dtd"
   xmlns:inkscape="http://www.inkscape.org/namespaces/inkscape"
   inkscape:version="1.0 (4035a4fb49, 2020-05-01)"
   sodipodi:docname="logo_old.svg"
   viewBox="0 0 400.00001 429.00001"
   height="429"
   width="400"
   xml:space="preserve"
   id="svg2"
   version="1.1"><metadata
     id="metadata8"><rdf:RDF><cc:Work
         rdf:about=""><dc:format>image/svg+xml</dc:format><dc:type
           rdf:resource="http://purl.org/dc/dcmitype/StillImage" /><dc:title></dc:title></cc:Work></rdf:RDF></metadata><defs
     id="defs6"><clipPath
       id="clipPath18"
       clipPathUnits="userSpaceOnUse"><path
         id="path16"
         d="M 0,858.898 H 1207.559 V 0 H 0 Z" /></clipPath></defs><sodipodi:namedview
     inkscape:current-layer="g10"
     inkscape:window-maximized="1"
     inkscape:window-y="-8"
     inkscape:window-x="-8"
     inkscape:cy="118.15527"
     inkscape:cx="805.03998"
     inkscape:zoom="0.8801977"
     showgrid="false"
     id="namedview4"
     inkscape:window-height="1377"
     inkscape:window-width="2560"
     inkscape:pageshadow="2"
     inkscape:pageopacity="0"
     guidetolerance="10"
     gridtolerance="10"
     objecttolerance="10"
     borderopacity="1"
     bordercolor="#666666"
     pagecolor="#ffffff"
     inkscape:document-rotation="0" /><g
     transform="matrix(1.3333333,0,0,-1.3333333,0,1145.1973)"
     inkscape:label="きく、はなす、すすむlogo2_outline"
     inkscape:groupmode="layer"
     id="g10"><g
       transform="matrix(0.45229992,0,0,0.45358876,-117.18211,496.34679)"
       id="g12"><g
         clip-path="url(#clipPath18)"
         id="g14"><g
           transform="translate(418.4046,513.6295)"
           id="g20"><path
             id="path22"
             style="fill:#231916;fill-opacity:1;fill-rule:nonzero;stroke:none"
             d="m 0,0 h 12.283 c 9.286,0 17.563,1.456 24.846,4.367 7.283,2.912 13.42,6.919 18.429,12.016 5.007,5.093 8.827,11.149 11.467,18.157 2.64,7.007 3.964,14.697 3.964,23.071 0,8.192 -1.366,15.835 -4.099,22.936 -2.726,7.101 -6.596,13.196 -11.605,18.293 -5.008,5.093 -11.153,9.099 -18.428,12.015 -7.283,2.908 -15.474,4.368 -24.574,4.368 H 0 Z m -53.52,160.547 h 79.181 c 14.014,0 27.171,-2.823 39.454,-8.464 12.291,-5.644 23.03,-13.152 32.223,-22.528 9.184,-9.375 16.425,-20.296 21.704,-32.761 5.28,-12.469 7.92,-25.529 7.92,-39.183 0,-13.471 -2.598,-26.441 -7.783,-38.906 C 113.992,6.235 106.794,-4.736 97.609,-14.197 88.416,-23.665 77.678,-31.221 65.387,-36.861 53.104,-42.506 39.862,-45.324 25.661,-45.324 H -53.52 Z" /></g><path
           id="path24"
           style="fill:#231916;fill-opacity:1;fill-rule:nonzero;stroke:none"
           d="m 621.889,468.305 h -49.42 v 140.068 h 49.42 z M 569.193,646.33 c 0,3.82 0.729,7.414 2.19,10.784 1.451,3.366 3.454,6.32 6.001,8.871 2.547,2.551 5.509,4.55 8.879,6.01 3.361,1.451 6.961,2.181 10.78,2.181 3.828,0 7.419,-0.73 10.789,-2.181 3.362,-1.46 6.324,-3.459 8.871,-6.01 2.546,-2.551 4.549,-5.505 6.009,-8.871 1.452,-3.37 2.182,-6.964 2.182,-10.784 0,-3.825 -0.73,-7.419 -2.182,-10.789 -1.46,-3.37 -3.463,-6.324 -6.009,-8.87 -2.547,-2.551 -5.509,-4.555 -8.871,-6.01 -3.37,-1.456 -6.961,-2.182 -10.789,-2.182 -3.819,0 -7.419,0.726 -10.78,2.182 -3.37,1.455 -6.332,3.459 -8.879,6.01 -2.547,2.546 -4.55,5.5 -6.001,8.87 -1.461,3.37 -2.19,6.964 -2.19,10.789" /><g
           transform="translate(699.9906,538.7511)"
           id="g26"><path
             id="path28"
             style="fill:#231916;fill-opacity:1;fill-rule:nonzero;stroke:none"
             d="m 0,0 c 0,-4.554 0.823,-8.786 2.462,-12.699 1.639,-3.917 3.862,-7.329 6.688,-10.237 2.819,-2.916 6.18,-5.19 10.102,-6.829 3.913,-1.638 8.141,-2.457 12.699,-2.457 4.362,0 8.505,0.819 12.418,2.457 3.913,1.639 7.283,3.913 10.102,6.829 2.818,2.908 5.092,6.277 6.824,10.102 1.732,3.824 2.598,7.919 2.598,12.287 0,4.367 -0.866,8.505 -2.598,12.422 -1.732,3.914 -4.006,7.326 -6.824,10.238 -2.819,2.911 -6.189,5.19 -10.102,6.828 -3.913,1.639 -8.056,2.458 -12.418,2.458 -4.558,0 -8.786,-0.819 -12.699,-2.458 C 15.33,27.303 11.969,25.024 9.15,22.113 6.324,19.201 4.101,15.878 2.462,12.147 0.823,8.417 0,4.368 0,0 m 62.255,69.623 h 49.691 V -70.446 H 62.255 v 15.564 c -10.56,-13.289 -24.846,-19.931 -42.867,-19.931 -10.195,0 -19.566,1.868 -28.122,5.594 -8.557,3.731 -16.018,8.964 -22.393,15.703 -6.375,6.732 -11.332,14.647 -14.88,23.751 -3.549,9.1 -5.322,19.023 -5.322,29.765 0,10.008 1.731,19.52 5.185,28.53 3.456,9.011 8.286,16.884 14.474,23.619 6.188,6.731 13.556,12.058 22.112,15.971 8.557,3.913 18.021,5.87 28.403,5.87 17.468,0 31.942,-6.099 43.41,-18.293 z" /></g><g
           transform="translate(418.4046,439.487)"
           id="g30"><path
             id="path32"
             style="fill:#231916;fill-opacity:1;fill-rule:nonzero;stroke:none"
             d="M 0,0 V -160.547 H 64.164 V -205.87 H -53.52 V 0 Z" /></g><g
           transform="translate(503.5882,366.5465)"
           id="g34"><path
             id="path36"
             style="fill:#231916;fill-opacity:1;fill-rule:nonzero;stroke:none"
             d="m 0,0 c 0,-4.96 0.908,-9.488 2.717,-13.585 1.816,-4.102 4.19,-7.676 7.149,-10.725 2.959,-3.048 6.485,-5.432 10.586,-7.15 4.101,-1.713 8.437,-2.572 13.014,-2.572 4.578,0 8.913,0.859 13.014,2.572 4.092,1.718 7.618,4.102 10.577,7.15 2.959,3.049 5.341,6.623 7.15,10.725 1.816,4.097 2.716,8.53 2.716,13.302 0,4.573 -0.9,8.908 -2.716,13.01 -1.809,4.1 -4.191,7.675 -7.15,10.724 -2.959,3.049 -6.485,5.437 -10.577,7.151 -4.101,1.717 -8.436,2.576 -13.014,2.576 -4.577,0 -8.913,-0.859 -13.014,-2.576 C 16.351,28.888 12.825,26.5 9.866,23.451 6.907,20.402 4.533,16.877 2.717,12.87 0.908,8.868 0,4.578 0,0 m -54.619,0.571 c 0,10.869 2.185,21.023 6.575,30.462 4.38,9.435 10.486,17.632 18.302,24.593 7.815,6.957 17.115,12.443 27.889,16.445 10.766,4.007 22.539,6.008 35.319,6.008 12.582,0 24.256,-1.96 35.031,-5.864 10.775,-3.912 20.118,-9.344 28.033,-16.301 7.906,-6.961 14.057,-15.258 18.447,-24.881 4.379,-9.633 6.574,-20.262 6.574,-31.891 0,-11.629 -2.239,-22.26 -6.719,-31.888 -4.487,-9.628 -10.63,-17.925 -18.446,-24.881 -7.824,-6.962 -17.214,-12.349 -28.177,-16.157 -10.964,-3.814 -22.835,-5.721 -35.606,-5.721 -12.582,0 -24.211,1.907 -34.887,5.721 -10.685,3.808 -19.876,9.245 -27.602,16.301 -7.717,7.05 -13.778,15.487 -18.158,25.308 -4.39,9.821 -6.575,20.736 -6.575,32.746" /></g><g
           transform="translate(702.3422,370.9294)"
           id="g38"><path
             id="path40"
             style="fill:#231916;fill-opacity:1;fill-rule:nonzero;stroke:none"
             d="m 0,0 c 0,-4.499 0.807,-8.685 2.428,-12.551 1.621,-3.87 3.819,-7.245 6.612,-10.122 2.793,-2.882 6.12,-5.132 9.991,-6.749 3.863,-1.621 8.047,-2.432 12.546,-2.432 4.32,0 8.412,0.811 12.282,2.432 3.871,1.617 7.199,3.867 9.992,6.749 2.784,2.877 5.034,6.252 6.748,10.122 1.707,3.866 2.564,7.962 2.564,12.283 0,4.495 -0.857,8.637 -2.564,12.414 -1.714,3.782 -4.006,7.11 -6.884,9.987 -2.878,2.878 -6.256,5.132 -10.118,6.749 -3.879,1.621 -7.877,2.431 -12.02,2.431 -4.312,0 -8.361,-0.857 -12.147,-2.567 C 15.652,27.035 12.325,24.786 9.447,22.002 6.57,19.209 4.27,15.928 2.563,12.146 0.849,8.369 0,4.32 0,0 M 109.595,68.561 V -60.464 c 0,-7.741 -0.459,-14.664 -1.35,-20.784 -0.908,-6.115 -2.165,-11.515 -3.786,-16.195 -2.156,-5.939 -5.534,-11.473 -10.118,-16.6 -4.593,-5.131 -10.127,-9.583 -16.604,-13.365 -6.476,-3.778 -13.81,-6.748 -21.993,-8.904 -8.191,-2.161 -17.054,-3.243 -26.595,-3.243 -10.797,0 -20.695,1.35 -29.692,4.049 -8.998,2.699 -16.867,6.439 -23.615,11.204 -6.748,4.772 -12.283,10.348 -16.604,16.736 -4.32,6.387 -7.198,13.361 -8.633,20.92 H 5.67 c 3.413,-9.181 11.154,-13.769 23.208,-13.769 10.263,0 18.131,2.882 23.623,8.638 5.483,5.763 8.234,13.767 8.234,24.026 v 13.225 c -3.608,-3.421 -7.062,-6.256 -10.39,-8.501 -3.336,-2.254 -6.714,-4.096 -10.126,-5.535 -3.421,-1.439 -7.021,-2.47 -10.798,-3.102 -3.777,-0.628 -7.92,-0.946 -12.419,-0.946 -9.898,0 -18.988,1.71 -27.256,5.127 -8.285,3.416 -15.44,8.186 -21.468,14.306 -6.026,6.116 -10.704,13.45 -14.031,21.998 -3.336,8.548 -4.991,18.042 -4.991,28.479 0,10.615 1.791,20.471 5.398,29.557 3.591,9.087 8.497,17.006 14.711,23.755 6.205,6.748 13.581,12.054 22.129,15.925 8.548,3.87 17.86,5.805 27.936,5.805 16.375,0 30.142,-6.12 41.305,-18.356 v 14.575 z" /></g><g
           transform="translate(263.9984,794.2003)"
           id="g42"><path
             id="path44"
             style="fill:none;stroke:#231916;stroke-width:14.173;stroke-linecap:butt;stroke-linejoin:miter;stroke-miterlimit:10;stroke-dasharray:none;stroke-opacity:1"
             d="M 0,0 64.521,-64.521 H 588.596" /></g><g
           transform="translate(887.4623,729.4572)"
           id="g46"><path
             id="path48"
             style="fill:#231916;fill-opacity:1;fill-rule:nonzero;stroke:none"
             d="m 0,0 c 0,-6.172 -5.004,-11.176 -11.176,-11.176 -6.172,0 -11.176,5.004 -11.176,11.176 0,6.172 5.004,11.175 11.176,11.175 C -5.004,11.175 0,6.172 0,0" /></g><g
           transform="translate(917.2533,113.4333)"
           id="g50"><path
             id="path52"
             style="fill:none;stroke:#231916;stroke-width:14.173;stroke-linecap:butt;stroke-linejoin:miter;stroke-miterlimit:10;stroke-dasharray:none;stroke-opacity:1"
             d="M 0,0 -64.521,64.521 H -588.596" /></g><g
           transform="translate(293.7904,178.1774)"
           id="g54"><path
             id="path56"
             style="fill:#231916;fill-opacity:1;fill-rule:nonzero;stroke:none"
             d="m 0,0 c 0,6.172 5.003,11.175 11.175,11.175 6.172,0 11.176,-5.003 11.176,-11.175 0,-6.173 -5.004,-11.176 -11.176,-11.176 C 5.003,-11.176 0,-6.173 0,0" /></g><g
           transform="translate(378.1371,130.0202)"
           id="g58"><path
             id="path60"
             style="fill:#231916;fill-opacity:1;fill-rule:nonzero;stroke:none"
             d="m 0,0 c 0.385,-1.104 0.672,-2.113 1.633,-2.113 0.672,0 2.978,1.249 3.699,1.633 C 5.668,-0.336 6.195,0 6.533,0 7.396,0 8.646,-2.93 8.646,-3.746 8.646,-4.323 8.07,-4.611 7.637,-4.899 6.533,-5.523 5.332,-6.004 4.178,-6.484 3.697,-6.677 3.074,-6.82 3.074,-7.445 c 0,-0.241 0.145,-0.529 0.24,-0.721 0.528,-1.345 0.864,-1.969 1.442,-1.969 1.008,0 4.707,2.161 5.715,2.786 0.289,0.192 0.816,0.529 1.152,0.529 0.818,0 2.451,-2.979 2.451,-3.7 0,-0.72 -1.056,-1.152 -2.017,-1.68 -1.25,-0.625 -2.547,-1.201 -3.844,-1.73 -0.576,-0.24 -1.344,-0.48 -1.344,-1.297 0,-1.056 3.986,-7.253 4.852,-8.358 0.383,-0.528 1.152,-1.44 1.152,-2.065 0,-1.105 -2.834,-3.122 -3.891,-3.122 -0.336,0 -0.529,0.143 -0.769,0.383 -2.305,2.258 -5.668,3.411 -8.838,3.411 -2.018,0 -4.756,-0.768 -4.756,-3.266 0,-3.459 4.901,-4.227 7.494,-4.227 1.008,0 1.922,0.096 2.93,0.24 0.385,0.048 0.961,0.096 1.393,0.096 0.96,0 1.154,-0.816 1.154,-2.21 0,-2.977 -0.481,-3.074 -2.738,-3.074 -3.123,0 -6.342,0.097 -9.272,1.249 -3.361,1.297 -5.764,3.987 -5.764,7.733 0,5.237 4.276,7.831 9.127,7.831 1.729,0 3.121,-0.289 4.754,-0.817 0.145,-0.049 0.338,-0.097 0.481,-0.097 0.24,0 0.433,0.193 0.433,0.433 0,0.24 -1.537,3.026 -1.826,3.507 -0.287,0.576 -0.576,1.152 -1.297,1.152 -0.287,0 -0.431,-0.048 -0.672,-0.143 -2.498,-0.769 -10.328,-2.403 -12.777,-2.403 -0.816,0 -1.01,0.481 -1.25,1.202 -0.238,0.768 -0.576,2.113 -0.576,2.929 0,0.913 0.865,0.818 2.113,0.913 3.459,0.193 6.869,0.721 10.233,1.633 0.48,0.145 1.056,0.385 1.056,0.913 0,0.096 -0.865,2.786 -1.826,2.786 -0.24,0 -1.152,-0.24 -1.488,-0.288 -1.201,-0.24 -4.322,-0.865 -5.477,-0.865 -0.623,0 -0.816,0.288 -1.056,0.816 -0.288,0.625 -0.817,2.403 -0.817,3.075 0,1.008 1.25,0.961 1.922,1.008 1.586,0.097 2.209,0.241 3.699,0.481 0.623,0.097 1.248,0.336 1.248,1.105 0,0.48 -1.056,2.45 -1.345,2.93 -0.192,0.336 -0.577,0.912 -0.577,1.249 0,1.009 3.364,1.681 4.18,1.681 C -0.77,2.594 -0.674,1.825 0,0" /></g><g
           transform="translate(429.7718,126.7545)"
           id="g62"><path
             id="path64"
             style="fill:#231916;fill-opacity:1;fill-rule:nonzero;stroke:none"
             d="m 0,0 c 0,-0.48 -0.672,-0.433 -1.008,-0.433 -0.529,-0.047 -0.912,-0.24 -1.297,-0.576 -1.201,-0.865 -2.402,-1.777 -3.603,-2.738 -2.69,-2.21 -5.428,-4.419 -7.926,-6.821 -0.912,-0.865 -1.969,-1.826 -1.969,-2.738 0,-1.201 1.586,-2.93 2.403,-3.795 2.738,-2.93 5.714,-5.62 8.693,-8.262 0.816,-0.72 4.131,-3.41 4.131,-4.371 0,-1.153 -2.93,-3.891 -4.082,-3.891 -0.529,0 -1.201,0.865 -1.49,1.249 -1.825,2.162 -3.842,4.179 -5.811,6.196 -2.594,2.594 -5.236,5.189 -7.59,7.974 -1.346,1.537 -2.306,2.931 -2.306,5.092 0,1.201 0.335,2.354 1.056,3.314 1.201,1.585 4.516,4.276 6.197,5.62 2.834,2.354 6.725,5.62 8.983,8.502 0.191,0.24 0.432,0.577 0.721,0.577 0.625,0 2.017,-1.633 2.544,-2.162 C -1.92,2.305 0,0.528 0,0" /></g><g
           transform="translate(451.7718,104.4655)"
           id="g66"><path
             id="path68"
             style="fill:#231916;fill-opacity:1;fill-rule:nonzero;stroke:none"
             d="m 0,0 c 1.104,0 9.365,-6.628 9.365,-7.829 0,-1.057 -2.4,-3.698 -3.506,-3.698 -0.384,0 -0.72,0.431 -0.961,0.719 -2.064,2.546 -4.515,4.804 -7.3,6.534 -0.336,0.192 -0.866,0.48 -0.866,0.912 C -3.268,-2.545 -0.816,0 0,0" /></g><g
           transform="translate(513.975,102.9284)"
           id="g70"><path
             id="path72"
             style="fill:#231916;fill-opacity:1;fill-rule:nonzero;stroke:none"
             d="m 0,0 c -1.105,0 -3.459,-0.384 -3.459,-1.873 0,-1.537 2.307,-2.065 3.508,-2.065 1.824,0 3.025,0.672 3.025,2.641 C 3.074,-0.048 0.912,0 0,0 M 7.445,26.948 C 7.686,26.9 7.926,26.804 7.926,26.516 7.926,26.083 7.637,25.987 7.396,25.555 7.109,25.074 6.869,24.258 6.869,22.145 V 20.8 c 0,-0.673 0.287,-1.249 1.008,-1.249 0.816,0 3.939,0.912 4.805,1.201 0.191,0.048 0.527,0.144 0.72,0.144 0.961,0 1.297,-3.315 1.297,-4.036 0,-0.912 -0.336,-1.249 -6.006,-2.017 -1.056,-0.144 -1.632,-0.336 -1.632,-1.537 0,-0.96 0.335,-8.31 0.384,-9.559 C 7.541,2.498 8.021,2.402 9.078,1.874 11,0.913 12.633,-0.144 14.266,-1.488 c 0.576,-0.481 1.25,-1.009 1.25,-1.825 0,-1.106 -1.682,-3.315 -2.787,-3.315 -0.528,0 -0.961,0.384 -1.344,0.72 -0.53,0.529 -2.93,2.642 -3.555,2.642 -0.48,0 -0.625,-0.384 -0.721,-0.768 -0.865,-3.074 -4.084,-4.035 -6.964,-4.035 -3.844,0 -8.022,1.825 -8.022,6.244 0,4.323 3.795,6.053 7.541,6.053 0.625,0 1.248,-0.048 1.873,-0.145 h 0.336 c 0.672,0 0.961,0.385 0.961,1.009 0,1.201 -0.24,5.764 -0.289,7.157 -0.047,0.48 0.049,1.825 -1.152,1.825 -0.385,0 -3.795,-0.191 -5.715,-0.191 h -0.625 c -1.201,0 -3.219,0.048 -3.651,0.384 -0.433,0.288 -0.48,3.026 -0.48,3.65 0,0.625 0.047,1.201 0.767,1.201 0.577,0 4.852,-0.48 7.35,-0.48 h 0.77 c 1.152,0 2.257,0.096 2.257,1.153 0,1.009 -0.384,5.668 -0.578,6.869 0,0.144 -0.047,0.336 -0.047,0.48 0,0.432 0.192,0.672 0.672,0.672 0.817,0 4.371,-0.624 5.332,-0.864 m -19.117,-1.393 c 0.383,-0.144 1.248,-0.481 1.248,-0.961 0,-0.288 -0.191,-0.384 -0.431,-0.48 -1.106,-0.528 -1.393,-0.961 -1.971,-2.45 -1.633,-4.035 -2.641,-10.231 -2.641,-14.602 0,-0.769 0.145,-5.333 1.057,-5.333 0.336,0 0.576,0.625 1.056,1.73 0.241,0.528 0.721,2.113 1.297,2.113 0.53,0 2.067,-0.961 2.067,-1.537 0,-0.672 -2.356,-5.956 -2.356,-8.742 0,-0.769 0.098,-1.537 0.098,-2.306 0,-1.873 -3.412,-2.449 -3.652,-2.449 -0.817,0 -1.2,0.912 -1.538,1.585 -2.16,4.611 -2.834,9.703 -2.834,14.795 0,4.659 0.579,8.934 1.682,13.449 0.529,2.113 1.201,4.179 1.731,6.293 0.046,0.336 0.191,0.817 0.623,0.817 0.336,0 1.826,-0.673 3.074,-1.249 0.625,-0.289 1.201,-0.577 1.49,-0.673" /></g><g
           transform="translate(576.4183,117.5797)"
           id="g74"><path
             id="path76"
             style="fill:#231916;fill-opacity:1;fill-rule:nonzero;stroke:none"
             d="m 0,0 c 0,-1.153 -2.738,-3.314 -3.604,-3.314 -0.478,0 -0.816,0.528 -1.056,0.864 -1.488,2.258 -3.842,4.563 -6.004,6.196 -0.191,0.145 -0.625,0.433 -0.625,0.769 0,0.672 2.211,3.314 3.219,3.314 C -6.869,7.829 0,1.249 0,0 m -20.99,-18.35 c 0,-1.489 1.92,-2.257 3.17,-2.257 1.728,0 2.498,0.913 2.498,2.593 0,0.961 -0.049,1.49 -2.451,1.49 -1.153,0 -3.217,-0.288 -3.217,-1.826 m 8.982,18.302 c 0.528,-0.144 0.959,-0.432 0.959,-1.009 0,-0.096 -0.096,-1.537 -0.096,-2.546 0,-1.393 0.241,-8.31 0.481,-9.319 0.144,-0.721 0.769,-0.912 1.49,-1.2 0.143,-0.049 0.336,-0.145 0.481,-0.192 1.103,-0.433 6.771,-3.075 6.771,-4.228 0,-0.769 -1.777,-3.506 -2.978,-3.506 -0.479,0 -0.912,0.432 -1.248,0.672 -0.721,0.528 -3.075,2.21 -3.842,2.21 -0.53,0 -0.721,-0.673 -0.77,-1.105 -0.576,-3.506 -3.41,-4.708 -6.677,-4.708 -3.891,0 -8.454,2.066 -8.454,6.534 0,4.419 4.18,5.956 7.975,5.956 h 1.248 c 0.576,0 1.008,0.24 1.008,0.816 0,1.537 -0.719,8.502 -0.863,10.376 0,0.24 -0.049,0.432 -0.049,0.672 0,0.769 0.433,1.057 1.152,1.057 0.914,0 2.547,-0.288 3.412,-0.48 m -6.918,14.314 c 0.24,-0.096 0.77,-0.241 0.77,-0.577 0,-0.335 -0.338,-0.528 -0.77,-0.864 -0.385,-0.337 -0.72,-2.017 -0.865,-2.546 -0.143,-0.384 -0.527,-1.922 -0.527,-2.162 0,-0.336 0.191,-0.624 0.527,-0.624 0.338,0 2.307,0.576 2.738,0.721 0.145,0.048 0.336,0.096 0.481,0.096 0.576,0 0.625,-0.865 0.72,-1.442 0.096,-0.672 0.241,-1.873 0.241,-2.545 0,-1.057 -0.576,-1.153 -4.996,-1.969 -1.729,-0.289 -1.68,-0.625 -2.258,-2.21 -2.114,-5.909 -4.852,-11.624 -7.828,-17.1 -0.289,-0.481 -0.434,-0.673 -0.961,-0.673 -1.057,0 -4.276,1.393 -4.276,2.401 0,0.433 0.625,1.346 0.866,1.73 1.968,3.219 4.273,7.638 5.714,11.096 0.241,0.528 1.106,2.546 1.106,2.93 0,0.288 -0.24,0.624 -0.672,0.624 -0.385,0 -4.084,-0.48 -5.189,-0.48 -0.817,0 -1.008,0.432 -1.2,1.537 -0.097,0.577 -0.338,2.306 -0.338,2.786 0,0.625 0.338,0.769 0.866,0.769 h 2.209 c 1.634,0 3.314,0.048 4.949,0.24 0.623,0.097 1.057,0.144 1.439,0.768 0.721,1.202 1.537,6.534 1.537,8.071 0,0.336 0,0.816 0.434,0.816 0.527,0 4.516,-1.153 5.283,-1.393" /></g><g
           transform="translate(601.059,108.6452)"
           id="g78"><path
             id="path80"
             style="fill:#231916;fill-opacity:1;fill-rule:nonzero;stroke:none"
             d="m 0,0 c 0,-1.441 0.336,-4.083 2.258,-4.083 1.922,0 2.498,2.449 2.498,3.938 0,1.49 -0.434,4.228 -2.402,4.228 C 0.48,4.083 0,1.44 0,0 m 6.34,24.065 c 1.152,-0.096 2.594,-0.24 2.594,-0.672 0,-0.241 -0.143,-0.384 -0.288,-0.529 C 8.311,22.624 7.926,22.24 7.877,20.847 7.83,19.838 7.83,18.781 7.83,17.772 c 0,-0.912 0.527,-1.392 1.393,-1.392 0.384,0 2.257,0.143 2.785,0.143 2.353,0.097 7.494,0.385 9.558,0.385 0.77,0 1.106,-0.288 1.106,-2.45 0,-2.93 -0.576,-2.882 -1.057,-2.882 -0.672,0 -4.275,0.24 -6.965,0.24 -0.865,0 -5.332,-0.047 -5.859,-0.192 C 8.117,11.384 7.877,10.712 7.877,10.039 V 8.357 c 0,-1.344 0.049,-1.728 0.48,-2.497 1.057,-1.969 1.491,-4.515 1.491,-6.725 0,-7.734 -5.141,-16.331 -7.254,-16.331 -0.576,0 -4.467,1.2 -4.467,2.065 0,0.384 0.816,1.057 1.103,1.345 1.827,1.729 2.258,2.546 3.459,4.659 0.096,0.24 0.241,0.433 0.241,0.721 0,0.144 -0.145,0.336 -0.336,0.336 -0.145,0 -0.24,0 -0.385,-0.048 -0.336,-0.096 -0.768,-0.24 -1.104,-0.24 -4.179,0 -5.716,4.515 -5.716,8.022 0,4.419 1.922,8.646 6.773,9.078 0.24,0.048 0.576,0.193 0.576,0.576 0,1.778 -0.336,2.018 -0.865,2.018 -0.385,0 -2.594,-0.24 -3.17,-0.288 -2.498,-0.24 -8.695,-0.913 -11,-1.394 -0.24,-0.048 -0.48,-0.095 -0.721,-0.095 -0.769,0 -0.816,0.672 -0.961,1.296 -0.144,0.817 -0.384,2.643 -0.384,3.459 0,0.96 0.433,0.865 2.787,0.96 1.297,0.049 12.584,0.673 13.017,0.769 0.721,0.192 1.057,0.769 1.057,1.489 0,1.489 -0.193,4.516 -0.48,5.956 -0.049,0.145 -0.049,0.241 -0.049,0.385 0,0.385 0.24,0.576 0.625,0.576 1.105,0 2.593,-0.288 3.746,-0.384" /></g><g
           transform="translate(637.1801,104.4655)"
           id="g82"><path
             id="path84"
             style="fill:#231916;fill-opacity:1;fill-rule:nonzero;stroke:none"
             d="m 0,0 c 1.104,0 9.365,-6.628 9.365,-7.829 0,-1.057 -2.4,-3.698 -3.506,-3.698 -0.384,0 -0.72,0.431 -0.961,0.719 -2.064,2.546 -4.515,4.804 -7.3,6.534 -0.336,0.192 -0.866,0.48 -0.866,0.912 C -3.268,-2.545 -0.816,0 0,0" /></g><g
           transform="translate(693.2816,108.6452)"
           id="g86"><path
             id="path88"
             style="fill:#231916;fill-opacity:1;fill-rule:nonzero;stroke:none"
             d="m 0,0 c 0,-1.441 0.338,-4.083 2.258,-4.083 1.922,0 2.498,2.449 2.498,3.938 0,1.49 -0.432,4.228 -2.402,4.228 C 0.48,4.083 0,1.44 0,0 m 6.342,24.065 c 1.152,-0.096 2.594,-0.24 2.594,-0.672 0,-0.241 -0.145,-0.384 -0.29,-0.529 C 8.311,22.624 7.926,22.24 7.879,20.847 7.83,19.838 7.83,18.781 7.83,17.772 c 0,-0.912 0.529,-1.392 1.393,-1.392 0.384,0 2.257,0.143 2.787,0.143 2.353,0.097 7.492,0.385 9.558,0.385 0.768,0 1.106,-0.288 1.106,-2.45 0,-2.93 -0.578,-2.882 -1.057,-2.882 -0.674,0 -4.275,0.24 -6.967,0.24 -0.863,0 -5.33,-0.047 -5.859,-0.192 C 8.119,11.384 7.879,10.712 7.879,10.039 V 8.357 c 0,-1.344 0.047,-1.728 0.48,-2.497 1.057,-1.969 1.489,-4.515 1.489,-6.725 0,-7.734 -5.139,-16.331 -7.254,-16.331 -0.576,0 -4.467,1.2 -4.467,2.065 0,0.384 0.816,1.057 1.105,1.345 1.825,1.729 2.258,2.546 3.459,4.659 0.096,0.24 0.241,0.433 0.241,0.721 0,0.144 -0.145,0.336 -0.338,0.336 -0.143,0 -0.24,0 -0.383,-0.048 -0.336,-0.096 -0.77,-0.24 -1.106,-0.24 -4.179,0 -5.716,4.515 -5.716,8.022 0,4.419 1.922,8.646 6.773,9.078 0.24,0.048 0.576,0.193 0.576,0.576 0,1.778 -0.336,2.018 -0.863,2.018 -0.385,0 -2.596,-0.24 -3.172,-0.288 -2.498,-0.24 -8.693,-0.913 -11,-1.394 -0.24,-0.048 -0.48,-0.095 -0.721,-0.095 -0.767,0 -0.816,0.672 -0.959,1.296 -0.144,0.817 -0.384,2.643 -0.384,3.459 0,0.96 0.431,0.865 2.785,0.96 1.297,0.049 12.586,0.673 13.017,0.769 0.721,0.192 1.057,0.769 1.057,1.489 0,1.489 -0.191,4.516 -0.48,5.956 -0.047,0.145 -0.047,0.241 -0.047,0.385 0,0.385 0.24,0.576 0.623,0.576 1.105,0 2.593,-0.288 3.748,-0.384" /></g><g
           transform="translate(740.3539,108.6452)"
           id="g90"><path
             id="path92"
             style="fill:#231916;fill-opacity:1;fill-rule:nonzero;stroke:none"
             d="m 0,0 c 0,-1.441 0.338,-4.083 2.258,-4.083 1.922,0 2.498,2.449 2.498,3.938 0,1.49 -0.432,4.228 -2.402,4.228 C 0.48,4.083 0,1.44 0,0 m 6.342,24.065 c 1.152,-0.096 2.594,-0.24 2.594,-0.672 0,-0.241 -0.145,-0.384 -0.29,-0.529 C 8.311,22.624 7.926,22.24 7.879,20.847 7.83,19.838 7.83,18.781 7.83,17.772 c 0,-0.912 0.529,-1.392 1.393,-1.392 0.384,0 2.257,0.143 2.787,0.143 2.353,0.097 7.492,0.385 9.558,0.385 0.768,0 1.106,-0.288 1.106,-2.45 0,-2.93 -0.578,-2.882 -1.057,-2.882 -0.674,0 -4.275,0.24 -6.967,0.24 -0.863,0 -5.33,-0.047 -5.859,-0.192 C 8.119,11.384 7.879,10.712 7.879,10.039 V 8.357 c 0,-1.344 0.047,-1.728 0.48,-2.497 1.057,-1.969 1.489,-4.515 1.489,-6.725 0,-7.734 -5.139,-16.331 -7.254,-16.331 -0.576,0 -4.467,1.2 -4.467,2.065 0,0.384 0.816,1.057 1.105,1.345 1.825,1.729 2.258,2.546 3.459,4.659 0.096,0.24 0.241,0.433 0.241,0.721 0,0.144 -0.145,0.336 -0.338,0.336 -0.143,0 -0.24,0 -0.383,-0.048 -0.336,-0.096 -0.77,-0.24 -1.106,-0.24 -4.179,0 -5.716,4.515 -5.716,8.022 0,4.419 1.922,8.646 6.773,9.078 0.24,0.048 0.576,0.193 0.576,0.576 0,1.778 -0.336,2.018 -0.863,2.018 -0.385,0 -2.596,-0.24 -3.172,-0.288 -2.498,-0.24 -8.693,-0.913 -11,-1.394 -0.24,-0.048 -0.48,-0.095 -0.721,-0.095 -0.767,0 -0.816,0.672 -0.959,1.296 -0.144,0.817 -0.384,2.643 -0.384,3.459 0,0.96 0.431,0.865 2.785,0.96 1.297,0.049 12.586,0.673 13.017,0.769 0.721,0.192 1.057,0.769 1.057,1.489 0,1.489 -0.191,4.516 -0.48,5.956 -0.047,0.145 -0.047,0.241 -0.047,0.385 0,0.385 0.24,0.576 0.623,0.576 1.105,0 2.593,-0.288 3.748,-0.384" /></g><g
           transform="translate(811.7816,117.0026)"
           id="g94"><path
             id="path96"
             style="fill:#231916;fill-opacity:1;fill-rule:nonzero;stroke:none"
             d="m 0,0 c 0,-0.816 -2.643,-3.025 -3.412,-3.025 -0.576,0 -0.961,0.671 -1.344,1.2 -1.777,2.258 -3.555,3.843 -5.812,5.572 -0.289,0.192 -0.625,0.481 -0.625,0.816 0,0.721 1.97,3.027 2.834,3.027 C -6.918,7.59 0,1.153 0,0 m -31.271,-7.637 c 0,-0.865 0.24,-2.546 1.392,-2.546 1.537,0 2.402,2.642 2.402,3.891 0,0.961 -0.671,2.21 -1.777,2.21 -1.586,0 -2.017,-2.355 -2.017,-3.555 m 9.511,22.24 c 0.287,-0.048 0.768,-0.192 0.768,-0.529 0,-0.288 -0.192,-0.528 -0.385,-0.72 -0.672,-0.72 -0.768,-1.921 -0.768,-2.882 0,-0.576 0.385,-0.817 0.768,-0.817 0.481,0 3.268,0.817 3.891,1.057 0.144,0.048 0.338,0.097 0.578,0.097 0.912,0 1.152,-3.123 1.152,-3.843 0,-1.201 -0.769,-1.201 -5.236,-2.114 -1.248,-0.241 -1.633,-0.529 -1.729,-1.826 -0.049,-1.056 -0.336,-5.908 -0.336,-6.676 0,-0.481 0.047,-0.817 0.143,-1.297 0.096,-0.576 0.144,-1.153 0.144,-1.73 0,-1.585 -0.335,-3.122 -0.767,-4.659 -0.338,-1.345 -0.961,-3.506 -0.961,-4.899 0,-2.546 4.322,-2.306 6.053,-2.306 2.113,0 6.386,0.096 7.972,1.682 1.106,1.104 1.393,3.458 1.537,4.995 0.096,1.489 0.096,2.258 1.25,2.258 1.057,0 4.034,-0.914 4.034,-2.258 0,-1.873 -1.2,-5.956 -2.45,-7.638 -1.537,-2.018 -3.65,-2.786 -6.052,-3.266 -2.354,-0.48 -5.092,-0.625 -7.492,-0.625 -4.469,0 -9.559,0.577 -9.559,6.245 0,0.625 0.143,1.393 0.287,2.017 0,0.097 0.049,0.193 0.049,0.289 0,0.288 -0.24,0.48 -0.529,0.48 -0.192,0 -0.336,-0.096 -0.528,-0.144 -0.24,-0.097 -0.578,-0.192 -0.865,-0.192 -3.555,0 -4.707,4.035 -4.707,6.965 0,3.411 1.728,7.973 5.859,7.973 0.672,0 1.153,-0.191 1.586,-0.191 0.528,0 0.576,0.624 0.576,2.257 0,0.625 0,1.249 -0.671,1.249 -0.194,0 -1.538,-0.192 -1.827,-0.241 -0.912,-0.095 -3.554,-0.48 -4.371,-0.48 -0.72,0 -0.961,0.337 -1.152,0.961 -0.145,0.673 -0.434,2.498 -0.434,3.171 0,0.912 0.385,0.912 1.155,0.912 1.439,0 5.138,0.144 6.388,0.48 1.057,0.288 1.057,1.442 1.057,2.354 0,1.297 -0.049,2.306 -0.289,3.602 0,0.145 -0.047,0.385 -0.047,0.529 0,0.385 0.238,0.528 0.623,0.528 0.385,0 4.756,-0.672 5.285,-0.768" /></g></g></g></g></svg>
