<svg version="1.1" xmlns="http://www.w3.org/2000/svg" viewBox="0 0 558.275 559.101">
  <g id="グループ_55" data-name="グループ 55" transform="translate(-689.722 -188.869)">
    <g id="グループ_4" data-name="グループ 4" transform="translate(801.75 600.022)">
      <g id="グループ_3" data-name="グループ 3">
        <path id="パス_11" data-name="パス 11" d="M394.215,724.27c.242.695.423,1.329,1.028,1.329a10.339,10.339,0,0,0,2.326-1.028,2.637,2.637,0,0,1,.755-.3c.543,0,1.328,1.842,1.328,2.356,0,.362-.362.544-.633.725a20.039,20.039,0,0,1-2.175,1c-.3.121-.695.212-.695.6a1.138,1.138,0,0,0,.152.452c.331.846.543,1.239.906,1.239a15.13,15.13,0,0,0,3.593-1.753,1.774,1.774,0,0,1,.725-.331c.514,0,1.54,1.872,1.54,2.326s-.664.725-1.267,1.056c-.785.393-1.6.755-2.417,1.088-.362.151-.847.3-.847.815,0,.664,2.508,4.561,3.051,5.255.242.332.724.906.724,1.3,0,.7-1.781,1.964-2.445,1.964a.628.628,0,0,1-.483-.242,8.068,8.068,0,0,0-5.558-2.144c-1.268,0-2.99.483-2.99,2.054,0,2.174,3.081,2.658,4.712,2.658a12.5,12.5,0,0,0,1.841-.151,7.961,7.961,0,0,1,.877-.06c.6,0,.725.514.725,1.389,0,1.872-.3,1.933-1.722,1.933a15.844,15.844,0,0,1-5.83-.785,5.178,5.178,0,0,1-3.623-4.862c0-3.293,2.688-4.924,5.738-4.924a9.148,9.148,0,0,1,2.99.513,1.083,1.083,0,0,0,.3.061.272.272,0,0,0,.273-.273,22.721,22.721,0,0,0-1.148-2.2c-.182-.362-.362-.725-.815-.725a.969.969,0,0,0-.424.091,47.543,47.543,0,0,1-8.034,1.51c-.514,0-.636-.3-.785-.755a7.618,7.618,0,0,1-.362-1.842c0-.574.543-.513,1.328-.574A31.065,31.065,0,0,0,393.31,732c.3-.091.664-.242.664-.574,0-.061-.544-1.753-1.148-1.753-.152,0-.725.151-.937.181a28.06,28.06,0,0,1-3.443.544c-.393,0-.514-.181-.664-.513a7.291,7.291,0,0,1-.514-1.934c0-.634.785-.6,1.208-.634a18.81,18.81,0,0,0,2.326-.3c.393-.06.785-.211.785-.695a8.311,8.311,0,0,0-.846-1.842,2.322,2.322,0,0,1-.362-.785c0-.635,2.115-1.058,2.628-1.058C393.731,722.638,393.791,723.122,394.215,724.27Z" transform="translate(-385.547 -721.431)" fill="#231815"/>
        <path id="パス_12" data-name="パス 12" d="M416.226,730.229c3.565-1.268,7.34-2.809,11.145-2.809a8.032,8.032,0,0,1,5.951,2.235,7.8,7.8,0,0,1,2.053,5.286c0,5.256-4.47,8.518-8.941,10.028a21.854,21.854,0,0,1-4.681,1.087c-.513,0-.725-.332-.966-.755a6.213,6.213,0,0,1-.694-2.024c0-.544.633-.574,1.056-.6,4.229-.362,10.814-2.6,10.814-7.793,0-2.658-2.055-4.2-4.561-4.2-4.228,0-8.91,2.235-12.6,4.138a1.957,1.957,0,0,1-.815.242c-.906,0-2.267-2.175-2.267-3.02,0-.393.334-.484,1.541-.847C413.961,730.984,414.9,730.683,416.226,730.229Zm20.418-2.3c0,.454-1.056,1.42-1.449,1.42-.182,0-.3-.211-.424-.363-.694-.784-1.42-1.57-2.2-2.326-.122-.09-.274-.242-.274-.393,0-.332,1.117-1.268,1.421-1.268A11.737,11.737,0,0,1,436.644,727.934Zm2.81-2.3c0,.423-1.028,1.42-1.42,1.42-.18,0-.393-.272-.695-.6-.633-.725-1.3-1.359-1.994-2.054a.623.623,0,0,1-.241-.394c0-.362,1.117-1.3,1.419-1.3A11.275,11.275,0,0,1,439.453,725.639Z" transform="translate(-389.136 -721.441)" fill="#231815"/>
        <path id="パス_13" data-name="パス 13" d="M466.034,726.419c0,.3-.422.272-.634.272a1.351,1.351,0,0,0-.815.362q-1.133.815-2.265,1.722c-1.692,1.39-3.413,2.779-4.983,4.289-.575.544-1.239,1.148-1.239,1.721,0,.755,1,1.842,1.51,2.387,1.722,1.841,3.595,3.533,5.467,5.195.514.453,2.6,2.145,2.6,2.749,0,.725-1.842,2.446-2.567,2.446-.332,0-.755-.544-.937-.785-1.148-1.36-2.415-2.628-3.654-3.9-1.632-1.631-3.294-3.262-4.773-5.014a4.585,4.585,0,0,1-1.45-3.2,3.433,3.433,0,0,1,.664-2.085,29.349,29.349,0,0,1,3.9-3.533A41.271,41.271,0,0,0,462.5,723.7c.12-.15.271-.362.451-.362.393,0,1.269,1.028,1.6,1.36C464.826,724.97,466.034,726.087,466.034,726.419Z" transform="translate(-394.697 -721.527)" fill="#231815"/>
        <path id="パス_14" data-name="パス 14" d="M483.92,743.151c.695,0,5.89,4.168,5.89,4.923,0,.665-1.512,2.326-2.206,2.326-.241,0-.453-.271-.6-.452a18.619,18.619,0,0,0-4.591-4.108c-.212-.121-.545-.3-.545-.574A4.12,4.12,0,0,1,483.92,743.151Z" transform="translate(-398.752 -724.243)" fill="#231815"/>
        <path id="パス_15" data-name="パス 15" d="M517.336,730.528c3.534-1.237,7.34-2.779,11.145-2.779a8.12,8.12,0,0,1,5.952,2.2,7.818,7.818,0,0,1,2.055,5.316c0,4.652-3.686,7.914-7.732,9.575a24.17,24.17,0,0,1-5.89,1.51c-.514,0-.725-.3-.967-.725a6.446,6.446,0,0,1-.695-2.023c0-.544.633-.6,1.026-.634,4.229-.333,10.844-2.6,10.844-7.763,0-2.688-2.083-4.2-4.622-4.2-4.2,0-8.88,2.235-12.564,4.138a1.72,1.72,0,0,1-.785.242c-.937,0-2.3-2.174-2.3-3.02,0-.393.362-.514,1.632-.907C515.132,731.252,516.068,730.981,517.336,730.528Z" transform="translate(-402.993 -722.131)" fill="#231815"/>
        <path id="パス_16" data-name="パス 16" d="M552.027,730.229c3.565-1.268,7.34-2.809,11.145-2.809a8.029,8.029,0,0,1,5.951,2.235,7.793,7.793,0,0,1,2.053,5.286c0,5.256-4.469,8.518-8.941,10.028a21.849,21.849,0,0,1-4.682,1.087c-.512,0-.725-.332-.966-.755a6.214,6.214,0,0,1-.695-2.024c0-.544.634-.574,1.057-.6,4.228-.362,10.813-2.6,10.813-7.793,0-2.658-2.055-4.2-4.56-4.2-4.228,0-8.91,2.235-12.6,4.138a1.957,1.957,0,0,1-.815.242c-.907,0-2.267-2.175-2.267-3.02,0-.393.334-.484,1.54-.847C549.762,730.984,550.7,730.683,552.027,730.229Zm20.418-2.3c0,.454-1.057,1.42-1.45,1.42-.182,0-.3-.211-.423-.363-.695-.784-1.42-1.57-2.2-2.326-.121-.09-.273-.242-.273-.393,0-.332,1.117-1.268,1.421-1.268A11.75,11.75,0,0,1,572.445,727.934Zm2.81-2.3c0,.423-1.028,1.42-1.421,1.42-.18,0-.393-.272-.694-.6-.634-.725-1.3-1.359-1.994-2.054a.623.623,0,0,1-.241-.394c0-.362,1.117-1.3,1.419-1.3A11.267,11.267,0,0,1,575.255,725.639Z" transform="translate(-407.753 -721.441)" fill="#231815"/>
        <path id="パス_17" data-name="パス 17" d="M601.2,726.988c0,.211-.332.393-.666.634a29.288,29.288,0,0,0-4.378,4.048.9.9,0,0,0-.3.513c0,.242.242.393.513.393a1.7,1.7,0,0,0,.393-.061,5.8,5.8,0,0,1,1.239-.12,8.851,8.851,0,0,1,3.714.906,6.243,6.243,0,0,1,3.595,5.86c0,5.346-4.743,8.125-9.6,8.125-2.508,0-6.071-1.028-6.071-4.108a3.793,3.793,0,0,1,3.867-3.654,4.925,4.925,0,0,1,4.016,2.144,3,3,0,0,1,.544,1.933c.03.211.122.393.362.393a4.908,4.908,0,0,0,3.654-4.651c0-2.93-2.476-4.138-5.1-4.138a9.171,9.171,0,0,0-6.766,2.96c-1.179,1.148-2.265,2.387-3.352,3.625a.412.412,0,0,1-.332.211c-.635,0-2.175-1.691-2.175-2.175,0-.363.453-.7.724-.907a121.055,121.055,0,0,0,9.395-9.484c.242-.242.785-.785.785-1.087,0-.272-.271-.362-.513-.362a7.323,7.323,0,0,0-.725.121c-.725.181-4.984,1.058-5.467,1.058-.664,0-.755-2.266-.755-2.779,0-.695.03-.755.937-.755h.725a27.985,27.985,0,0,0,7.641-1.117,4.11,4.11,0,0,1,1.148-.333C599.448,724.178,601.2,726.474,601.2,726.988Zm-7.642,14.981a1.252,1.252,0,0,0-1.3,1.209c0,1.088,1.45,1.6,2.357,1.6.573,0,.815-.544.815-1.027A1.846,1.846,0,0,0,593.559,741.969Z" transform="translate(-412.801 -721.642)" fill="#231815"/>
        <path id="パス_18" data-name="パス 18" d="M619.721,743.151c.694,0,5.89,4.168,5.89,4.923,0,.665-1.512,2.326-2.206,2.326-.241,0-.453-.271-.6-.452a18.619,18.619,0,0,0-4.591-4.108c-.212-.121-.544-.3-.544-.574A4.119,4.119,0,0,1,619.721,743.151Z" transform="translate(-417.369 -724.243)" fill="#231815"/>
        <path id="パス_19" data-name="パス 19" d="M654.536,730.528c3.534-1.237,7.34-2.779,11.145-2.779a8.12,8.12,0,0,1,5.951,2.2,7.818,7.818,0,0,1,2.055,5.316c0,4.652-3.685,7.914-7.732,9.575a24.169,24.169,0,0,1-5.89,1.51c-.514,0-.725-.3-.967-.725a6.469,6.469,0,0,1-.695-2.023c0-.544.634-.6,1.027-.634,4.228-.333,10.843-2.6,10.843-7.763,0-2.688-2.083-4.2-4.621-4.2-4.2,0-8.88,2.235-12.565,4.138a1.719,1.719,0,0,1-.785.242c-.937,0-2.3-2.174-2.3-3.02,0-.393.362-.514,1.631-.907C652.331,731.252,653.267,730.981,654.536,730.528Z" transform="translate(-421.803 -722.131)" fill="#231815"/>
        <path id="パス_20" data-name="パス 20" d="M697.482,723.06c.152.06.484.151.484.362s-.212.331-.484.544a5.242,5.242,0,0,0-.542,1.6,9.689,9.689,0,0,0-.334,1.359.352.352,0,0,0,.334.393,14.643,14.643,0,0,0,1.721-.453,1.079,1.079,0,0,1,.3-.06c.362,0,.393.544.454.906a14.373,14.373,0,0,1,.151,1.6c0,.664-.362.726-3.141,1.238-1.087.181-1.057.393-1.419,1.39a76.966,76.966,0,0,1-4.925,10.753c-.18.3-.271.423-.6.423-.664,0-2.688-.876-2.688-1.51a3.368,3.368,0,0,1,.543-1.088,56.462,56.462,0,0,0,3.595-6.977,11.709,11.709,0,0,0,.694-1.842.406.406,0,0,0-.423-.393c-.241,0-2.566.3-3.261.3-.514,0-.635-.272-.755-.966-.06-.363-.212-1.451-.212-1.752,0-.393.212-.484.544-.484H688.9a26.813,26.813,0,0,0,3.112-.151c.393-.06.665-.091.906-.483a18.405,18.405,0,0,0,.966-5.074c0-.211,0-.514.273-.514C694.493,722.183,697,722.909,697.482,723.06Zm4.35,9c.332.091.6.273.6.635,0,.06-.061.966-.061,1.6,0,.876.152,5.226.3,5.859.089.454.482.574.935.755.091.03.212.091.3.122.695.271,4.258,1.933,4.258,2.658,0,.484-1.117,2.206-1.873,2.206-.3,0-.573-.273-.785-.424a8.592,8.592,0,0,0-2.415-1.389c-.334,0-.453.423-.483.695-.362,2.2-2.146,2.96-4.2,2.96-2.447,0-5.317-1.3-5.317-4.107,0-2.779,2.629-3.745,5.016-3.745h.783c.364,0,.635-.151.635-.514,0-.966-.453-5.346-.544-6.524,0-.151-.03-.272-.03-.424,0-.482.274-.664.725-.664A12.725,12.725,0,0,1,701.832,732.06Zm-5.647,11.509c0,.936,1.206,1.419,1.992,1.419,1.089,0,1.57-.574,1.57-1.631,0-.6-.03-.936-1.54-.936C697.482,742.421,696.185,742.6,696.185,743.568Zm13.2-11.539c0,.726-1.721,2.085-2.265,2.085-.3,0-.512-.332-.664-.544a17.146,17.146,0,0,0-3.775-3.9c-.122-.091-.393-.273-.393-.484,0-.423,1.388-2.084,2.023-2.084C705.066,727.107,709.383,731.244,709.383,732.03Z" transform="translate(-426.846 -721.368)" fill="#231815"/>
        <path id="パス_21" data-name="パス 21" d="M731.917,724.078c.243.06.786.151.786.482,0,.181-.122.273-.272.393-.575.423-.635.906-.785,1.993-.06.332-.122.755-.212,1.239a1.5,1.5,0,0,0-.06.362.587.587,0,0,0,.664.6h.362a6.051,6.051,0,0,1,3.413.664c1.51,1,1.872,2.719,1.872,4.41,0,2.748-.484,6.826-1.812,9.244a6.174,6.174,0,0,1-5.708,3.262c-.665,0-1.087-.061-1.39-.7a6.064,6.064,0,0,1-.543-2.174c0-.273.089-.514.423-.514.3,0,.755.122,1.358.122a2.9,2.9,0,0,0,3.172-1.873,17.973,17.973,0,0,0,1.358-6.826c0-1.48-.089-2.748-1.933-2.748-1.69,0-2.023.242-2.235,1.087a34.117,34.117,0,0,1-3.866,9.031,27.053,27.053,0,0,1-2.99,4.289.707.707,0,0,1-.514.3c-.543,0-2.476-1.148-2.476-1.843a1.128,1.128,0,0,1,.423-.695,24.031,24.031,0,0,0,5.407-8.4,11.342,11.342,0,0,0,.755-2.3.38.38,0,0,0-.393-.393,24.93,24.93,0,0,0-3.474,1.057,2.237,2.237,0,0,1-.635.211c-.725,0-1.238-2.96-1.238-3.141,0-.454.513-.454.876-.484,1.692-.181,3.383-.6,5.044-.906.6-.12.877-.3.967-.936a28,28,0,0,0,.332-3.9c0-.483-.061-1.118-.061-1.178,0-.242.091-.454.362-.454C729.2,723.383,731.464,723.957,731.917,724.078Zm12.567,10c0,.695-1.9,1.812-2.508,1.812-.393,0-.573-.393-.695-.695a22.189,22.189,0,0,0-4.048-6.464.952.952,0,0,1-.272-.513c0-.544,1.662-1.54,2.145-1.54C740.254,726.675,744.484,733.321,744.484,734.076Zm-.454-7.733c0,.483-1.056,1.389-1.449,1.389-.152,0-.3-.211-.423-.332a26.352,26.352,0,0,0-2.146-2.326c-.119-.121-.271-.272-.271-.423,0-.362,1.087-1.269,1.449-1.269A12.052,12.052,0,0,1,744.03,726.343ZM746.9,724.2c0,.483-1.087,1.389-1.45,1.389-.18,0-.271-.151-.423-.332-.695-.815-1.389-1.57-2.144-2.326-.121-.091-.3-.273-.3-.423,0-.362,1.148-1.268,1.449-1.268A12.144,12.144,0,0,1,746.9,724.2Z" transform="translate(-431.471 -721.239)" fill="#231815"/>
        <path id="パス_22" data-name="パス 22" d="M773.4,726.988c0,.211-.332.393-.666.634a29.285,29.285,0,0,0-4.378,4.048.9.9,0,0,0-.3.513c0,.242.241.393.512.393a1.7,1.7,0,0,0,.393-.061,5.8,5.8,0,0,1,1.239-.12,8.857,8.857,0,0,1,3.715.906,6.244,6.244,0,0,1,3.595,5.86c0,5.346-4.742,8.125-9.6,8.125-2.508,0-6.071-1.028-6.071-4.108a3.792,3.792,0,0,1,3.866-3.654,4.925,4.925,0,0,1,4.016,2.144,3,3,0,0,1,.544,1.933c.03.211.122.393.362.393a4.909,4.909,0,0,0,3.654-4.651c0-2.93-2.477-4.138-5.1-4.138a9.171,9.171,0,0,0-6.767,2.96c-1.178,1.148-2.265,2.387-3.352,3.625a.411.411,0,0,1-.332.211c-.635,0-2.175-1.691-2.175-2.175,0-.363.453-.7.725-.907a121.053,121.053,0,0,0,9.394-9.484c.243-.242.785-.785.785-1.087,0-.272-.271-.362-.513-.362a7.323,7.323,0,0,0-.725.121c-.725.181-4.983,1.058-5.467,1.058-.664,0-.755-2.266-.755-2.779,0-.695.03-.755.937-.755h.725a27.985,27.985,0,0,0,7.641-1.117,4.119,4.119,0,0,1,1.148-.333C771.648,724.178,773.4,726.474,773.4,726.988Zm-7.642,14.981a1.251,1.251,0,0,0-1.3,1.209c0,1.088,1.449,1.6,2.356,1.6.573,0,.815-.544.815-1.027A1.846,1.846,0,0,0,765.758,741.969Z" transform="translate(-436.409 -721.642)" fill="#231815"/>
      </g>
    </g>
    <g id="グループ_51" data-name="グループ 51" transform="translate(840.957 325.125)">
      <path id="パス_38" data-name="パス 38" d="M443.011,281.981h45.445a53.548,53.548,0,0,1,22.645,4.865,61.685,61.685,0,0,1,18.494,12.949,60.194,60.194,0,0,1,12.458,18.831,58.143,58.143,0,0,1,.078,44.886,59.946,59.946,0,0,1-12.38,18.911,60.96,60.96,0,0,1-18.494,13.027,53.875,53.875,0,0,1-22.8,4.865H443.011Zm30.717,92.281h7.049a38.091,38.091,0,0,0,14.26-2.511,30.438,30.438,0,0,0,10.577-6.906,29.532,29.532,0,0,0,6.582-10.437,37.382,37.382,0,0,0,2.276-13.262,36.424,36.424,0,0,0-2.354-13.184,29.543,29.543,0,0,0-17.236-17.42,37.71,37.71,0,0,0-14.1-2.51h-7.049Z" transform="translate(-443.011 -281.981)" fill="#231815" stroke="rgba(0,0,0,0)" stroke-width="1"/>
      <path id="パス_39" data-name="パス 39" d="M582.762,297.986a15.443,15.443,0,0,1,1.258-6.2,16.257,16.257,0,0,1,8.54-8.553,15.907,15.907,0,0,1,12.38,0,16.3,16.3,0,0,1,8.54,8.553,15.97,15.97,0,0,1,0,12.4,16.293,16.293,0,0,1-8.54,8.554,15.906,15.906,0,0,1-12.38,0,16.254,16.254,0,0,1-8.54-8.554A15.443,15.443,0,0,1,582.762,297.986ZM613.007,319.8v80.511H584.643V319.8Z" transform="translate(-465.501 -281.981)" fill="#231815" stroke="rgba(0,0,0,0)" stroke-width="1"/>
      <path id="パス_40" data-name="パス 40" d="M702.312,326.514h28.52v80.511h-28.52v-8.946q-9.091,11.458-24.6,11.456a39.933,39.933,0,0,1-16.141-3.215,38.915,38.915,0,0,1-12.852-9.027,41.577,41.577,0,0,1-8.54-13.652,46.761,46.761,0,0,1-3.055-17.109,45.456,45.456,0,0,1,2.977-16.4,42.159,42.159,0,0,1,8.306-13.576,39.169,39.169,0,0,1,12.692-9.18A38.677,38.677,0,0,1,677.4,324q15.039,0,24.915,10.515Zm-35.731,40.019a18.811,18.811,0,0,0,5.252,13.184,17.154,17.154,0,0,0,5.8,3.925,18.637,18.637,0,0,0,7.288,1.413,18.251,18.251,0,0,0,7.128-1.413,17.2,17.2,0,0,0,5.8-3.925,20.306,20.306,0,0,0,3.918-5.807,16.946,16.946,0,0,0,1.49-7.062,17.491,17.491,0,0,0-1.49-7.141,20.035,20.035,0,0,0-3.918-5.885,17.236,17.236,0,0,0-5.8-3.925,18.266,18.266,0,0,0-7.128-1.413,18.652,18.652,0,0,0-7.288,1.413,17.189,17.189,0,0,0-5.8,3.925,19.282,19.282,0,0,0-3.839,5.728A17.191,17.191,0,0,0,666.581,366.533Z" transform="translate(-474.249 -288.692)" fill="#231815" stroke="rgba(0,0,0,0)" stroke-width="1"/>
      <path id="パス_41" data-name="パス 41" d="M473.728,442.514V534.8h36.827v26.052H443.011V442.514Z" transform="translate(-443.011 -307.616)" fill="#231815" stroke="rgba(0,0,0,0)" stroke-width="1"/>
      <path id="パス_42" data-name="パス 42" d="M500.527,483.551a41.066,41.066,0,0,1,3.773-17.51,42.99,42.99,0,0,1,10.5-14.136,49.919,49.919,0,0,1,16.007-9.453A57.605,57.605,0,0,1,551.083,439a58.517,58.517,0,0,1,20.106,3.37,49.838,49.838,0,0,1,16.089,9.37,42.141,42.141,0,0,1,10.587,14.3,43.828,43.828,0,0,1,3.773,18.331,42.986,42.986,0,0,1-3.856,18.329A43.555,43.555,0,0,1,587.2,517a47.386,47.386,0,0,1-16.172,9.287,61.713,61.713,0,0,1-20.436,3.288,59.031,59.031,0,0,1-20.023-3.288,46.134,46.134,0,0,1-15.842-9.37A43.429,43.429,0,0,1,504.3,502.373,45.68,45.68,0,0,1,500.527,483.551Zm31.348.329a19.165,19.165,0,0,0,1.559,7.808,20.916,20.916,0,0,0,4.1,6.164,18.1,18.1,0,0,0,6.076,4.11,19.6,19.6,0,0,0,14.939,0,18.127,18.127,0,0,0,6.071-4.11,20.8,20.8,0,0,0,4.1-6.164,18.662,18.662,0,0,0,1.559-7.646,18.267,18.267,0,0,0-1.559-7.477,20.807,20.807,0,0,0-4.1-6.165,18.1,18.1,0,0,0-6.071-4.109,19.571,19.571,0,0,0-14.939,0,18.071,18.071,0,0,0-6.076,4.109,21.242,21.242,0,0,0-4.1,6.082A17.794,17.794,0,0,0,531.875,483.879Z" transform="translate(-452.267 -307.055)" fill="#231815" stroke="rgba(0,0,0,0)" stroke-width="1"/>
      <g id="グループ_50" data-name="グループ 50" transform="translate(164.557 132.722)">
        <path id="パス_43" data-name="パス 43" d="M731.156,442.1v74.163a83.616,83.616,0,0,1-.774,11.946,51.991,51.991,0,0,1-2.173,9.31,29.3,29.3,0,0,1-5.807,9.541,39.137,39.137,0,0,1-9.529,7.682,50.4,50.4,0,0,1-12.623,5.118,63.506,63.506,0,0,1-32.306-.463,46.4,46.4,0,0,1-13.554-6.441,37.476,37.476,0,0,1-9.529-9.619,31.864,31.864,0,0,1-4.955-12.025h31.6q2.938,7.916,13.319,7.914,8.835,0,13.558-4.965t4.727-13.81v-7.6a47.054,47.054,0,0,1-5.963,4.886,33.923,33.923,0,0,1-5.812,3.181,27.733,27.733,0,0,1-6.2,1.783,43.48,43.48,0,0,1-7.128.544,40.536,40.536,0,0,1-15.644-2.947,36.156,36.156,0,0,1-20.374-20.868,44.747,44.747,0,0,1-2.865-16.37,45.681,45.681,0,0,1,3.1-16.989,43.586,43.586,0,0,1,8.443-13.654,38.8,38.8,0,0,1,12.7-9.153,38.359,38.359,0,0,1,16.034-3.338,30.805,30.805,0,0,1,23.707,10.552V442.1Zm-62.9,39.409a18.577,18.577,0,0,0,5.189,13.032,17.01,17.01,0,0,0,5.734,3.879,18.4,18.4,0,0,0,7.2,1.4,18.036,18.036,0,0,0,7.05-1.4,17.026,17.026,0,0,0,5.734-3.879,19.859,19.859,0,0,0,3.873-5.818,17.862,17.862,0,0,0,0-14.2,19.328,19.328,0,0,0-3.951-5.74,17.919,17.919,0,0,0-5.807-3.879,17.688,17.688,0,0,0-6.9-1.4,16.716,16.716,0,0,0-6.972,1.476,20.055,20.055,0,0,0-5.729,3.876,18.285,18.285,0,0,0-3.951,5.665A16.711,16.711,0,0,0,668.254,481.508Z" transform="translate(-639.13 -439.925)" fill="#231815" stroke="rgba(0,0,0,0)" stroke-width="1"/>
      </g>
    </g>
    <path id="パス_44" data-name="パス 44" d="M293.333,215.223h50.344v387.2H730.3v50.419" transform="translate(422.034 69.805)" fill="none" stroke="#231815" stroke-miterlimit="10" stroke-width="11"/>
    <path id="パス_45" data-name="パス 45" d="M735.129,160.85h-411.8V573.255" transform="translate(417.206 78.487)" fill="none" stroke="#000" stroke-miterlimit="10" stroke-width="11"/>
    <path id="パス_46" data-name="パス 46" d="M377.705,130.85v50.419H764.33v387.2h50.344" transform="translate(408.456 83.278)" fill="none" stroke="#231815" stroke-miterlimit="10" stroke-width="11"/>
    <path id="パス_47" data-name="パス 47" d="M377.706,627.628H789.5V215.222" transform="translate(408.456 69.805)" fill="none" stroke="#231815" stroke-miterlimit="10" stroke-width="11"/>
    <ellipse id="楕円形_9" data-name="楕円形 9" cx="9.377" cy="9.391" rx="9.377" ry="9.391" transform="translate(1229.243 642.636)" fill="#231815"/>
    <ellipse id="楕円形_10" data-name="楕円形 10" cx="9.377" cy="9.391" rx="9.377" ry="9.391" transform="translate(1142.819 729.188)" fill="#231815"/>
    <ellipse id="楕円形_11" data-name="楕円形 11" cx="9.377" cy="9.391" rx="9.377" ry="9.391" transform="translate(689.722 275.421)" fill="#231815"/>
    <ellipse id="楕円形_12" data-name="楕円形 12" cx="9.377" cy="9.391" rx="9.377" ry="9.391" transform="translate(776.985 188.869)" fill="#231815"/>
  </g>
</svg>
