<svg xmlns="http://www.w3.org/2000/svg" width="21.27mm" height="19.16mm" viewBox="0 0 60.3 54.3">
  <defs>
    <style>
      .a, .b, .d {
        fill: none;
        stroke-miterlimit: 10;
        stroke-width: 1.79px;
      }

      .a {
        stroke: #c9caca;
      }

      .b {
        stroke: #727171;
      }

      .c {
        fill: #fff;
      }

      .d {
        stroke: #9fa0a0;
      }
    </style>
  </defs>
  <path class="a" d="M94.07,58.51c-2.38-.46-3.15.24-4.29.3a11.5,11.5,0,0,1-5.44-1.05c-1.65-1-3.22-3.45-1.82-4.8s4-1.76,5-2a5.22,5.22,0,0,1,2.59.15c1,.19,2.49.9,3,1a7.32,7.32,0,0,0,1.18.08" transform="translate(-47.06 -31.48)"/>
  <path class="a" d="M92.53,58.35c.56.82.33,2,1,3.15s3.3,3,3.3,3" transform="translate(-47.06 -31.48)"/>
  <path class="a" d="M86.14,45.9a14.52,14.52,0,0,1,4.54,5.32" transform="translate(-47.06 -31.48)"/>
  <path class="b" d="M71.21,44.28l-2.85-.55a26.18,26.18,0,0,0-4.53.08c-1.7,0-4.91-.49-6.81-.51a39.43,39.43,0,0,0-5.7.3c-1.6.25-1.13,2.93,1.06,3.85,1.35.56,5.4.18,7,.41s6.59,1.28,8.63,1.67,3.37,1,5.75,1.67l.34.88c-3.5-1-4.82-1.69-6.56-1.27a12,12,0,0,1-5,.27c-1.73-.29-6-1.18-7.16-.31s-1.08,2.41.85,3.21A23.47,23.47,0,0,0,62,55.45c.89,0,4,.68,5.55.72a31.77,31.77,0,0,1,7.52,1.76c1.49.62,4.63,2.66,6.33,3.56S92.61,68.71,97,69.92a15.86,15.86,0,0,0,7,.75,14.88,14.88,0,0,1,3.19.33" transform="translate(-47.06 -31.48)"/>
  <g>
    <path class="c" d="M49.05,66.88H47.92v-5.6h-.7V60.22h.7V57.81h1.13v2.41h1.19v1.06H49.05Z" transform="translate(-47.06 -31.48)"/>
    <path class="c" d="M54.38,60.07a3.37,3.37,0,0,1,1.38.28A3.54,3.54,0,0,1,57.62,65a3.43,3.43,0,0,1-.74,1.11,3.69,3.69,0,0,1-1.13.74,3.6,3.6,0,0,1-1.4.27A3.54,3.54,0,0,1,53,66.8,3.48,3.48,0,0,1,51.86,66a3.81,3.81,0,0,1-.74-1.13,3.6,3.6,0,0,1-.27-1.4,3.14,3.14,0,0,1,.28-1.33,3.67,3.67,0,0,1,.76-1.1A3.6,3.6,0,0,1,53,60.35,3.28,3.28,0,0,1,54.38,60.07Zm0,1.06a2.24,2.24,0,0,0-.93.19,2.36,2.36,0,0,0-.74.5,2.31,2.31,0,0,0-.49.76,2.56,2.56,0,0,0-.18,1,3,3,0,0,0,.17,1,2.22,2.22,0,0,0,.48.78,2.57,2.57,0,0,0,.74.51,2.39,2.39,0,0,0,.94.18,2.47,2.47,0,0,0,.95-.18,2.26,2.26,0,0,0,.76-.51,2.21,2.21,0,0,0,.49-.76,2.94,2.94,0,0,0,0-2,2.26,2.26,0,0,0-.49-.77,2.41,2.41,0,0,0-1.7-.69Z" transform="translate(-47.06 -31.48)"/>
    <path class="c" d="M60.61,64.09a4.88,4.88,0,0,0,0,.74,2.35,2.35,0,0,0,.16.51,1.23,1.23,0,0,0,.52.49,1.72,1.72,0,0,0,.78.18,1.65,1.65,0,0,0,.77-.18,1.18,1.18,0,0,0,.52-.49,1.91,1.91,0,0,0,.16-.51,4.67,4.67,0,0,0,0-.74V60.22h1.14v4a4.26,4.26,0,0,1-.14,1.19,2,2,0,0,1-.48.81,2.3,2.3,0,0,1-.88.63,3,3,0,0,1-1.14.21A3,3,0,0,1,61,66.86a2.26,2.26,0,0,1-.89-.63,2,2,0,0,1-.48-.81,4.3,4.3,0,0,1-.13-1.19v-4h1.14Z" transform="translate(-47.06 -31.48)"/>
    <path class="c" d="M72,62.21a4.29,4.29,0,0,0-1-.84,2.44,2.44,0,0,0-2,0,2.17,2.17,0,0,0-.75.51,2.14,2.14,0,0,0-.5.77,2.58,2.58,0,0,0-.18,1,2.54,2.54,0,0,0,.18,1,2.4,2.4,0,0,0,.49.78,2.57,2.57,0,0,0,.74.51,2.32,2.32,0,0,0,.92.18A2.4,2.4,0,0,0,71,65.76a4.13,4.13,0,0,0,1-.89v1.51a5.2,5.2,0,0,1-1.09.54,3.41,3.41,0,0,1-1,.15,3.62,3.62,0,0,1-1.39-.27,3.77,3.77,0,0,1-1.12-.74,3.49,3.49,0,0,1-.74-1.1,3.29,3.29,0,0,1-.28-1.37,3.4,3.4,0,0,1,.28-1.4,3.53,3.53,0,0,1,3.27-2.12,3.59,3.59,0,0,1,1.07.15,3.5,3.5,0,0,1,1,.48Z" transform="translate(-47.06 -31.48)"/>
    <path class="c" d="M74.72,55.19V61a2.56,2.56,0,0,1,.86-.73,2.32,2.32,0,0,1,1-.22,2.67,2.67,0,0,1,1.13.25,1.91,1.91,0,0,1,.78.67,2.14,2.14,0,0,1,.3.71,4.86,4.86,0,0,1,.09,1v4.13H77.79v-4a2.15,2.15,0,0,0-.32-1.31,1.31,1.31,0,0,0-1.06-.4,1.41,1.41,0,0,0-1.41.79,2.11,2.11,0,0,0-.21.67,6.25,6.25,0,0,0-.07,1v3.32H73.58V55.19Z" transform="translate(-47.06 -31.48)"/>
  </g>
  <g>
    <path class="c" d="M55.22,70.07a7.93,7.93,0,0,1,6,2.48A7.46,7.46,0,0,1,62.83,75a8.11,8.11,0,0,1-.17,6.23,7.69,7.69,0,0,1-2,2.69,8.17,8.17,0,0,1-5.46,1.85,8.55,8.55,0,0,1-3.23-.6,8,8,0,0,1-2.56-1.67A7.64,7.64,0,0,1,47.67,81a8.22,8.22,0,0,1-.61-3.2,7.43,7.43,0,0,1,.72-3.19,7.77,7.77,0,0,1,2-2.66,7.11,7.11,0,0,1,2.45-1.38A9,9,0,0,1,55.22,70.07Zm0,3.74a4.17,4.17,0,0,0-1.62.31,4.37,4.37,0,0,0-1.31.88,4.52,4.52,0,0,0-.9,1.3,3.81,3.81,0,0,0-.33,1.57,4.24,4.24,0,0,0,.32,1.64,4,4,0,0,0,.89,1.32,4.32,4.32,0,0,0,1.32.89,4.17,4.17,0,0,0,3.25,0,4.37,4.37,0,0,0,1.33-.89,4.08,4.08,0,0,0,.88-1.31,4.19,4.19,0,0,0,0-3.21A4.19,4.19,0,0,0,58.17,75a4.34,4.34,0,0,0-1.33-.88A4.21,4.21,0,0,0,55.22,73.81Z" transform="translate(-47.06 -31.48)"/>
    <path class="c" d="M74.32,70.51H79l-5.83,7,6.39,7.75h-5l-5-6.38v6.38H65.81V70.51h3.84v6.08Z" transform="translate(-47.06 -31.48)"/>
    <path class="c" d="M83.49,81.1a2.26,2.26,0,0,1,.9.18,2.16,2.16,0,0,1,.73.48,2.29,2.29,0,0,1,.49.73,2.32,2.32,0,0,1,0,1.79,2.25,2.25,0,0,1-2.1,1.39,2.26,2.26,0,0,1-2.3-2.32,2.12,2.12,0,0,1,.18-.87,2.22,2.22,0,0,1,.5-.72,2.26,2.26,0,0,1,.73-.48A2.12,2.12,0,0,1,83.49,81.1ZM81.65,70.51h3.72v9.73H81.65Z" transform="translate(-47.06 -31.48)"/>
  </g>
  <path class="d" d="M74.69,46.58c-.6-1.1-5.53-3.33-6.66-3.69s-7.27-.7-8.22-.88-5.54,1.15-6.79.43c-2.3-1.32-2.77-3.48-.56-4,3.22-.81,3.7-.79,4.61-1.23a5.24,5.24,0,0,1,2.13-.34" transform="translate(-47.06 -31.48)"/>
  <path class="a" d="M79.13,43.49s2-.11-.39-.92-4.07-2.27-5.64-2.93a57.44,57.44,0,0,0-7.09-2c-1.22-.24-6.47.29-7.61-1.48s-1.49-3-.71-3.32c1.47-.55,3.69-.4,6-.46s8.73.84,10.06.89S83.51,38.69,86,39.53s2.69,0,4.51,2.22,9.1,9.45,11.85,10.54a35.32,35.32,0,0,0,4.78,1.56" transform="translate(-47.06 -31.48)"/>
</svg>
